<svg xmlns="http://www.w3.org/2000/svg" viewBox="0 0 1024 1024" width="200" height="200"><path d="M90.63168 796.54912c13.05856 1.85088 26.71872 11.15136 38.56384 21.35808 12.416 10.69312 25.04192 24.35584 36.20608 38.05696 11.17696 13.71648 21.16864 27.81952 28.2368 39.56736 3.51744 5.84192 6.4768 11.37664 8.48896 16.15616 0.9984 2.37568 1.8944 4.85632 2.46016 7.2832 0.46592 1.98656 1.02656 5.19168 0.37376 8.67328l-0.14848 0.69888-0.3328 1.26976c-1.82784 6.3232-6.08 12.0192-10.96192 16.49408-5.42208 4.97152-12.544 9.31072-20.93056 12.12928-17.0752 5.74464-39.04768 5.0944-62.5536-8.40448-6.35648-3.65056-13.85472-10.3552-21.05856-17.68448-7.45728-7.5904-15.46496-16.75264-22.90688-26.15552-7.42912-9.39008-14.464-19.23328-19.8912-28.1984-5.09696-8.42496-9.856-17.77152-10.96704-25.66912-1.37984-9.78688-0.06912-24.69376 7.99488-36.95616 4.1856-6.36672 10.24-12.04992 18.53952-15.5904 8.256-3.52256 17.93024-4.5824 28.88704-3.02848z m21.85472 40.75264c-11.48672-9.8944-20.28288-14.67392-25.4464-15.40608-7.26528-1.02912-12.0832-0.12032-15.25248 1.23136-3.12832 1.33376-5.43232 3.43296-7.1936 6.10816-3.82976 5.82656-4.77696 14.05696-4.03456 19.3152 0.31488 2.23488 2.46784 7.6416 7.52128 15.9872 4.72576 7.808 11.08992 16.7552 18.06336 25.56928 6.9632 8.79872 14.36416 17.2544 21.08928 24.09472 6.976 7.09888 12.42624 11.6352 15.552 13.42976 17.41824 10.00448 31.7952 9.6512 41.64096 6.34112 5.07648-1.70752 9.06496-4.2368 11.79136-6.73536 1.35936-1.24672 2.31424-2.40128 2.92864-3.33312 0.06144-0.09216 0.11264-0.18688 0.16384-0.27136-0.1792-0.52736-0.43264-1.19552-0.77568-2.01216-1.35424-3.2128-3.63776-7.5904-6.82752-12.8896-6.33856-10.5344-15.59808-23.64416-26.1504-36.5952-10.56768-12.9664-22.14912-25.42848-33.07008-34.83392z" fill="#000000" ></path><path d="M54.37696 847.41632c-1.90976-13.56032 4.06528-41.71264 36.91008-37.056 32.8448 4.65664 96.22784 92.20864 93.29664 104.73216-2.9312 12.52608-31.55712 33.18016-68.44416 11.9936-17.09568-9.8176-59.1872-61.40416-61.76256-79.66976z" fill="#D5E0D1" ></path><path d="M204.3648 930.99776c-43.456-11.43552-99.7376-80.1152-122.44736-113.02656-7.99744-120.6144 345.9584-354.71616 474.03008-301.2608 128.07424 53.45536-297.2672 428.5824-351.58528 414.28736z" fill="#DAE4D7" ></path><path d="M422.83008 512.0768c51.72224-16.5248 101.632-22.37952 138.048-7.17824 9.856 4.11392 17.83296 10.1248 23.37024 18.17856 5.53472 8.04608 8.05632 17.29024 8.384 26.93632 0.63488 18.75456-6.97344 40.17152-18.66496 62.0288-23.59552 44.1088-67.4944 96.6144-116.29312 146.19648-48.97792 49.7664-103.72096 97.4208-149.79072 131.82976-23.00416 17.18016-44.12672 31.2704-61.4656 40.67584-8.64256 4.68992-16.6912 8.40448-23.78752 10.7136-6.58944 2.14784-14.4128 3.79136-21.52704 1.92-13.0432-3.43296-26.19136-10.88-38.5536-19.89376-12.48-9.09824-24.832-20.29824-36.31616-31.97184-22.94528-23.32672-43.15392-49.3184-54.85056-66.27072l-2.00448-2.90304-0.23296-3.52c-1.21088-18.22976 4.44416-37.46048 14.20288-56.46336 9.81248-19.10016 24.20992-38.83008 41.71008-58.3936 35.00544-39.1296 83.45344-78.73536 135.8976-112.64512 52.45184-33.91488 109.4784-62.5024 161.87392-79.23968z m128.18688 16.44544c-27.6224-11.52768-69.98272-8.1664-120.3968 7.93856-49.74336 15.88992-104.71936 43.34592-155.76576 76.352-51.05408 33.0112-97.6 71.20128-130.71616 108.21888-16.55808 18.51136-29.50144 36.4416-38.016 53.02016-7.77728 15.13728-11.5072 28.45696-11.54048 39.70304 11.27168 15.95648 29.50912 39.07328 49.90208 59.80672 10.85952 11.04128 22.144 21.21472 33.14688 29.23776 11.1232 8.11008 21.30432 13.53472 29.98784 15.8208-0.32256-0.08448 1.54368 0.30208 7.08608-1.50272 5.0432-1.64096 11.57632-4.57216 19.5072-8.87552 15.8208-8.58112 35.84-21.87008 58.35008-38.6816 44.95616-33.57696 98.72896-80.36608 146.8672-129.27744 48.31744-49.09312 90.13248-99.50208 111.96672-140.31616 11.0208-20.60544 16.05376-37.15072 15.64928-49.08544-0.192-5.69856-1.61024-9.984-3.8912-13.29664-2.27584-3.31008-5.98528-6.49472-12.13696-9.0624z" fill="#000000" ></path><path d="M520.07936 538.37312c-0.94976-14.31296-2.06592-35.93728 0.22272-54.40256 1.13152-9.13664 3.22304-18.68032 7.35232-26.40384 2.496-4.66432 6.06976-9.1904 10.92864-12.3136-0.94208-1.10848-1.95328-2.29376-2.94656-3.49696-2.14016-2.5856-4.53632-5.62432-6.48448-8.768-1.8048-2.91328-4.08832-7.24992-4.5312-12.288-0.5376-6.14656 1.79456-12.33152 7.42144-16.53248 4.61056-3.44064 10.41664-4.76672 15.82336-5.3248 36.6848-3.8016 73.984-11.83744 97.2032-38.37184 2.05824-2.35264 2.49088-3.87328 2.60352-4.60032 0.1152-0.74496 0.064-1.7792-0.61696-3.41504-1.65632-3.9936-5.46048-8.256-10.98752-14.14912-2.4064-2.56768-5.32224-5.66272-7.62624-8.73728-2.10688-2.81344-5.20448-7.5008-5.6832-13.34784-0.6016-7.34208 3.02336-13.22496 8.128-17.04192 4.416-3.3024 10.23744-5.37856 16.50176-6.91968 23.24224-5.71136 57.39264-13.66272 87.1424-25.42848 14.86336-5.88032 27.98336-12.47232 37.824-19.7888 9.95072-7.40096 15.29088-14.60224 16.98816-21.3632 2.07872-8.29952 1.90976-19.56864-0.72192-32.63488-2.60096-12.90752-7.4368-26.73664-13.83936-39.72864-6.41024-13.00992-14.20288-24.80128-22.48192-33.81504-8.4224-9.16992-16.52992-14.58432-23.4112-16.4608-8.09728-2.2016-17.92-2.48576-29.81376-1.93024-10.9056 0.512-25.3696 1.90208-38.07744 2.1504-26.8032 0.512-57.02144-3.39968-80.12544-30.55616-17.42592-20.48768-37.62176-30.8736-58.7392-33.1392-21.31456-2.28864-44.8384 3.57376-68.7488 17.91488-24.21248 14.52288-35.57376 27.2384-46.32832 37.64224-5.4016 5.2224-11.2512 10.46016-18.6496 14.28992-7.63904 3.95264-16.15872 6.03136-26.65472 6.3232-16.64768 0.4608-29.2864 3.31008-39.4112 9.664-9.96608 6.25152-18.93376 16.81408-26.46528 35.48416-8.0256 19.90144-13.312 33.15456-20.76416 43.8016-7.79776 11.14368-17.54624 18.93376-32.73472 29.6192-6.30528 4.43904-9.93792 8.57088-12.2624 12.4416-2.34496 3.90656-3.74784 8.2048-4.79488 13.59616-1.14944 5.92384-1.61024 11.38688-2.78784 19.49184-1.10336 7.5904-2.70336 16.17408-5.92384 25.62816-12.55168 36.83072-44.29568 69.6576-61.72672 88.14592-3.52512 3.7376-16.59136 20.84864-32.46592 47.31904-15.7056 26.1888-33.6896 60.76672-47.35232 99.12064-27.1616 76.23168-36.0832 163.66848 17.90464 231.4112 1.8432-0.99328 4.48-2.74176 8-5.58848 9.93792-8.0384 22.1184-20.66944 36.4288-34.83648 13.85216-13.71136 29.39904-28.5312 44.85888-39.20384 14.86848-10.2656 32.89856-19.01312 50.77504-14.99392 13.15328 2.95936 21.64992 1.55904 27.76064-1.1776 6.39232-2.8672 11.66336-7.84896 17.33632-14.75584 2.88768-3.51488 5.50656-7.05024 8.60416-11.06944 2.96704-3.85024 6.25152-7.97696 9.92256-11.81184 7.45984-7.79776 17.07776-14.98112 30.56128-17.28768 8.42752-1.44128 17.5232-4.60032 27.648-8.69632 9.47456-3.83232 21.13536-9.05984 31.71584-13.0944 21.76768-8.29952 47.31904-15.10656 73.14688-5.07136 14.13632 5.49376 28.76416-0.35584 41.408-13.99552a80.6016 80.6016 0 0 0 14.55872-22.34624c3.42528-7.92576 4.68224-14.70464 4.38784-19.15648z m25.54368-1.69216c0.65536 9.89184-2.05312 20.87168-6.43072 31.0016a106.19904 106.19904 0 0 1-19.28448 29.59616c-16.1536 17.42848-41.3568 31.3728-69.4528 20.45696-16.40448-6.3744-34.05056-2.76992-54.75328 5.12512-10.65472 4.06272-20.04992 8.37888-31.23456 12.90496-10.5344 4.2624-21.70624 8.2816-32.93952 10.2016-6.1824 1.05728-11.13344 4.27264-16.37888 9.7536-2.68288 2.8032-5.2864 6.03648-8.14336 9.74336-2.7264 3.53792-5.8752 7.76448-9.09312 11.68384-6.54336 7.96928-14.85824 16.58368-26.65216 21.87008-12.07808 5.4144-26.37312 6.72512-43.84768 2.79552-6.6304-1.48992-16.63488 1.43104-30.61504 11.08224-13.3888 9.2416-27.49952 22.5792-41.39008 36.33408-13.43488 13.29664-27.0848 27.44064-38.34112 36.544-5.5296 4.47232-11.73504 8.79872-17.9968 10.88256-3.26144 1.08544-7.3344 1.83296-11.71456 1.02912-4.6848-0.86016-8.68096-3.31008-11.648-6.87872C10.17088 712 22.4256 611.50464 50.944 531.456c14.3744-40.34816 33.1904-76.47488 49.51552-103.69536 16.1536-26.93888 30.35136-45.9392 35.79648-51.71456 18.44736-19.56608 45.70624-48.28672 56.11776-78.84032 2.51904-7.39328 3.83744-14.26944 4.82304-21.05344 0.91136-6.26944 1.71264-14.09792 2.99008-20.6848 1.3824-7.1168 3.5712-14.5536 7.97952-21.89824 4.4288-7.38304 10.7136-14.03136 19.47648-20.1984 14.9504-10.5216 21.4528-16.15872 26.496-23.36256 5.3888-7.69792 9.53344-17.7152 17.9968-38.69952 8.95744-22.21312 20.88704-37.73696 36.59776-47.59552 15.552-9.75872 33.36448-13.04576 52.30848-13.57056 7.29856-0.2048 11.92192-1.56672 15.59808-3.4688 3.91168-2.0224 7.54688-5.04832 12.61568-9.95328 10.1888-9.856 23.73376-24.86272 50.96192-41.19552 27.52768-16.512 56.58112-24.42752 84.6464-21.4144 28.26496 3.0336 54.2592 17.03168 75.5072 42.00448 15.56736 18.304 35.91424 22.016 60.1344 21.55008 12.80256-0.24832 23.96416-1.50016 37.37088-2.12992 12.416-0.58112 25.58976-0.50432 37.74208 2.80832 13.37344 3.64288 25.43616 12.84352 35.53792 23.84128 10.24512 11.15648 19.33312 25.088 26.58816 39.81568 7.26784 14.7456 12.8896 30.6688 15.9744 45.98784 3.05408 15.1552 3.79648 30.58432 0.45312 43.91424-3.72736 14.86592-14.27456 26.55744-26.54208 35.68128-12.38016 9.20576-27.80672 16.77312-43.68128 23.0528-31.72608 12.54912-67.81184 20.92032-90.45248 26.4832-0.61952 0.1536-1.19808 0.30208-1.73568 0.45056 0.86016 0.95232 1.84832 2.01472 2.9824 3.2256 4.6208 4.928 12.15744 12.69248 15.95648 21.84448 2.048 4.93568 3.25632 10.75456 2.27328 17.12896-0.9856 6.39488-4.0064 12.26496-8.64 17.5616-29.3376 33.5232-73.94816 42.5728-110.208 46.58688 0.38912 0.48896 0.8064 0.9984 1.24416 1.52832 0.95744 1.15712 1.94816 2.32192 2.99264 3.55072 1.02144 1.2032 2.10432 2.47552 3.13344 3.72736 1.9328 2.34752 4.25728 5.30688 5.90848 8.32768 0.83456 1.52576 1.83296 3.65568 2.34496 6.17728 0.5248 2.59584 0.67328 6.37696-1.24416 10.26048-3.92192 7.936-12.29824 8.9856-15.66464 9.20832a0.88576 0.88576 0 0 0-0.6016 0.22528c-0.34816 0.2688-1.09312 1.00352-2.0096 2.71616-1.9328 3.61472-3.5328 9.49248-4.52352 17.47968-1.95584 15.77472-1.0368 35.18464-0.08192 49.5616z" fill="#000000" ></path><path d="M233.7152 682.25536c-47.79008-10.67776-123.20256 112.0256-141.12512 90.57792-119.13472-142.55616 41.1648-367.55712 58.66752-386.02496 17.50016-18.4704 46.2848-48.34048 57.48992-81.03936 11.20768-32.69888 0.39168-54.6176 29.79072-75.20768s31.71072-26.06848 47.80544-65.74848c16.09472-39.68 40.7808-50.6368 75.4944-51.6096 34.71104-0.97024 33.12896-24.832 83.30752-54.78912 50.17856-29.95712 102.55616-26.77504 140.25728 17.32864 37.70112 44.10112 98.62144 14.76352 138.11968 25.4592 39.49824 10.69312 78.33088 92.00384 67.74016 133.98016-10.59328 41.97888-102.84544 62.74304-147.5968 73.69984-44.75136 10.9568 30.25152 32.61184 4.13184 62.30528s-67.05152 37.7344-102.91968 41.44384c-35.86816 3.712 25.36448 39.59552 2.72384 41.09568-22.63808 1.50272-20.54144 53.29152-18.69568 81.12896 1.84576 27.84-34.6752 82.1888-75.85792 66.2784-41.18272-15.90784-84.2624 20.2368-122.61888 26.77248-38.35648 6.53824-36.97664 67.69664-96.71424 54.3488z" fill="#6BCF54" ></path><path d="M550.64832 118.01088c22.4128-5.89056 40.94976-7.73888 53.23008-8.02048 6.05952-0.13824 10.87488 0.1024 14.00832 0.50944 0.79104 0.1024 1.69216 0.24576 2.57792 0.45056 0.4352 0.09984 1.07008 0.25856 1.78176 0.512 0.41216 0.14336 2.13248 0.73728 3.88864 2.11712 0.86784 0.68352 2.82112 2.3808 4.01152 5.34528a12.8512 12.8512 0 0 1-0.76032 11.15648 12.94336 12.94336 0 0 1-4.65408 4.72576 13.30176 13.30176 0 0 1-2.60864 1.18272c-1.83552 0.60672-3.55328 0.70912-4.0448 0.7424-17.00608 1.1264-41.45152 12.48768-68.70528 30.5152-26.67264 17.6384-54.0672 40.31232-76.46208 61.43744-9.7408 9.18528-18.31936 17.87904-25.3952 25.57952 44.4032-18.87744 92.29568-17.9072 122.50368-12.84352 8.73216 1.46432 16.32 3.32544 22.21312 5.30432 2.92864 0.9856 5.67296 2.0736 8.02304 3.2768 1.87648 0.96 5.20704 2.816 7.58784 5.952 1.2928 1.70496 3.31008 5.12512 2.92608 9.77664-0.41728 5.01504-3.33056 8.30976-5.62176 10.0224-3.69152 2.75712-8.12288 3.32288-10.24 3.5456-5.44512 0.56832-13.2992 0.15872-23.35744-1.1008-16.62464-2.08128-38.77632 2.4576-63.23968 11.37664-24.11264 8.7936-48.97536 21.2736-70.40512 33.48736l-2.74432 1.57696c22.2848-1.35424 46.72768-1.152 67.60448-0.1408 21.53728 1.04448 40.73984 3.01312 49.6896 5.44768 1.23392 0.33536 2.62912 0.768 3.97824 1.34912 0.96 0.41216 3.56096 1.56928 5.7344 4.01664a13.3248 13.3248 0 0 1 1.03168 16.53504c-2.46272 3.55072-5.9648 4.9408-6.88384 5.30688-2.7392 1.09824-6.12096 1.70496-9.216 2.13248-3.41504 0.4736-7.71072 0.87808-12.90496 1.22112-39.23712 2.60352-78.39232 10.32448-112.28672 22.70208-32.63744 11.9168-59.56608 27.84768-77.27616 46.90176 22.30528-2.78784 60.33152-8.0768 104.10752 0.0128 1.74848 0.32256 5.07136 1.05728 8.0384 3.27424a14.1312 14.1312 0 0 1 4.9536 6.74816 13.8496 13.8496 0 0 1-0.13568 9.2928c-1.53344 4.14464-4.63616 6.5792-5.8112 7.46752-1.63584 1.23392-3.45856 2.28096-5.13792 3.14368-6.54336 3.3664-16.97536 7.02208-27.94752 10.35264-22.00064 6.67648-50.85696 13.41184-65.36704 14.3744-28.23424 1.87136-58.20672 17.1008-76.3392 31.2704 15.20384-4.29312 36.97664-4.8384 58.2272-3.70176 23.2064 1.23904 47.90272 4.62592 67.15136 8.87808 9.5616 2.112 18.23232 4.53376 24.832 7.19104 3.24608 1.30816 6.55616 2.8928 9.32608 4.85376 2.16064 1.53344 6.98368 5.3376 7.9616 11.91424 1.23392 8.27648-4.2368 13.49376-7.4368 15.65696-3.28448 2.21952-7.31392 3.61984-11.15136 4.62848-7.9488 2.08896-19.63264 3.63264-35.37152 4.67712-131.70176 8.73216-197.80864 79.0144-234.944 144.97536-18.7392 33.28768-30.0288 65.3824-38.6048 88.68352-4.1088 11.1616-8.00512 21.5168-12.0192 28.25216-1.86624 3.13088-4.99712 7.70816-9.99936 10.2656a16.75264 16.75264 0 0 1-10.1376 1.7024c-3.62752-0.5376-6.52032-2.17856-8.63744-3.87584-49.9712-40.00768-68.40576-89.10592-66.74176-140.04992 1.6384-50.1504 22.67392-101.29664 49.76128-147.10272 54.13888-91.54816 135.43936-166.6944 150.90688-178.35264 2.60096-1.9584 5.93408-5.6448 9.84832-11.44064 3.82464-5.66272 7.77472-12.6848 11.80928-20.68992 8.0896-16.05376 15.9872-34.9696 23.57504-52.928 7.39584-17.50272 14.72512-34.67264 21.34528-45.83168 3.02848-5.10208 7.20384-11.29984 12.71808-14.68416 3.19232-1.96096 8.07168-3.71712 13.68832-2.1888 5.02016 1.36448 8.26624 4.72576 10.23232 7.59296l0.37632 0.5632 0.5376 0.8704c5.44512 9.04704 6.95296 21.35552 7.22432 32.57344 0.2688 11.06688-0.67072 23.36256-2.05824 35.23072 14.89664-21.568 35.80672-48.69888 65.05984-81.74848 56.7168-64.0768 117.23008-92.14208 162.176-103.95136z m-27.82208 36.40064c-35.06432 14.60736-75.92448 40.1664-115.18208 84.5184-80.31232 90.72896-94.38464 133.61408-95.26016 136.52736l-0.04096 0.15616c-0.02304 0.08448-0.064 0.24064-0.12032 0.4224-0.02048 0.06656-0.08448 0.28672-0.1792 0.55808-0.03328 0.09472-0.16384 0.47104-0.36864 0.9344a12.8512 12.8512 0 0 1-2.31168 3.52512c-0.36352 0.3968-2.92864 3.29216-7.50848 3.97824a12.79232 12.79232 0 0 1-13.03296-6.34368c-1.25952-2.22208-1.50528-4.24448-1.56416-4.71808-0.16896-1.33888-0.0768-2.4064-0.064-2.57024 0.04864-0.64256 0.1408-1.14432 0.1536-1.23136 0.05632-0.31744 0.11264-0.56832 0.128-0.63232 0.04352-0.192 0.08448-0.35328 0.10496-0.4352l0.03584-0.13568c0.11776-0.51968 0.59136-2.81344 0.896-6.80704 0.3456-4.5696 1.98912-13.51424 3.67104-23.16288 1.77664-10.18368 3.83744-22.38208 5.39136-34.78272 1.5616-12.46464 2.55488-24.73984 2.304-35.11296a102.1568 102.1568 0 0 0-0.3584-6.49984c-4.82816 9.31072-10.35776 22.19776-16.5888 36.94848-7.45984 17.65376-15.73376 37.48864-24.29952 54.48448-4.29312 8.52224-8.79104 16.59648-13.4528 23.5008-4.57216 6.76864-9.76896 13.11744-15.65696 17.55392-13.13792 9.89952-92.04992 82.62144-144.27648 170.93888-26.09408 44.12416-44.7744 90.91328-46.21056 134.90944-1.33376 40.832 12.1216 79.92832 50.27072 113.45152 2.06592-4.51328 4.52096-10.91072 7.6544-19.42528 8.44288-22.9376 20.39808-57.0112 40.32-92.40064 40.192-71.39072 113.08032-148.51328 255.55712-157.96224 0.03328 0 0.064-0.00512 0.09728-0.00768-16.4864-3.17184-36.29824-5.67808-55.08096-6.6816-22.44352-1.20064-41.41056-0.128-51.66336 3.31264-9.14432 3.06944-16.98304 4.89472-23.31904 5.11488-5.02784 0.17408-15.62112-0.54784-20.0448-10.4064-2.03008-4.52864-1.60768-8.94208-0.79104-12.0448 0.82432-3.11808 2.29632-5.92896 3.81184-8.2816 3.04128-4.72576 7.51872-9.53344 12.61568-14.09024 20.11136-17.97632 58.73408-39.73376 97.17504-42.28096 8.04864-0.53504 23.5776-3.66848 39.63136-7.7696-20.40064 0.3712-37.81376 2.90048-50.81088 4.46976-5.44256 0.65536-10.74944 1.22368-15.08864 1.21088-2.17088-0.00768-4.73856-0.1536-7.26784-0.768-2.41152-0.58368-6.2336-1.93792-9.23136-5.46048-3.3792-3.968-4.02176-8.64256-3.54816-12.34944 0.4224-3.30752 1.73056-6.17728 2.8928-8.2944 2.35264-4.28544 6.20544-9.16224 10.90304-14.53056 21.4912-24.56576 53.67808-43.31264 90.0096-56.58112a372.65152 372.65152 0 0 1 29.19168-9.27488c-3.05152 0.14592-6.06208 0.32-9.02144 0.5248-10.99264 0.76032-21.0304 1.92256-29.39136 3.53536-8.60416 1.65888-14.46656 3.61984-17.75616 5.4912-2.60352 1.48224-5.06624 2.78528-7.05792 3.57376-0.54016 0.21504-1.28 0.4864-2.13248 0.71168a14.12864 14.12864 0 0 1-4.65152 0.45312c-2.09408-0.15616-9.06496-1.46176-11.44576-9.03168-1.68192-5.35296 0.6912-9.58464 0.9472-10.06848 1.1136-2.11456 2.66496-3.64288 3.10784-4.0832 0.77056-0.77056 1.63584-1.54624 2.49856-2.27584a131.4688 131.4688 0 0 1 6.6304-5.18656c10.51648-7.79264 29.00992-20.0704 51.18208-32.70912 21.26336-12.11904 46.25664-24.768 71.13984-34.11968-18.40896 3.0848-37.312 8.97792-54.69952 19.02336-5.4784 3.16416-10.304 5.59872-14.42048 7.168-2.0608 0.78336-4.22912 1.46176-6.40256 1.85344-2.04032 0.36608-4.96128 0.64768-8.11008-0.13312-3.56096-0.8832-7.38816-3.17184-9.67424-7.4368-2.02752-3.7888-1.9584-7.52128-1.6512-9.81248 0.58112-4.37504 2.70848-8.55808 4.55168-11.6992 7.72352-13.1584 26.54208-34.05824 49.3824-55.6032 19.77856-18.65728 43.456-38.6176 67.4816-55.64928z m-139.81184 204.6848c-0.14336 0.14336-0.12544 0.13312 0.00256-0.00512l-0.00256 0.00512z" fill="#000000" ></path><path d="M378.88 550.4C126.20288 567.1552 111.19104 831.69792 85.76 810.24-64 683.87072 202.82112 412.50048 229.12 391.68c31.20896-24.71168 68.03712-134.4 70.4-130.56 14.16704 23.03232-8.41984 91.50464-9.4208 106.0736-1.10592 8.64512-0.89856 7.72096-1.10592 8.64512 1.09568-4.07552 30.99392-38.89664 106.52672-128.79872 100.72064-119.8848 166.17728-96.83456 153.6-96-75.99616 5.03808-168.84736 142.08-136.96 142.08 83.76064-50.7392 121.3312-26.93632 94.72-23.04-71.68 10.49088-144.42496 67.84-144.42496 82.99008 0 18.12992 110.4512-20.1088 99.62496-7.47008-6.4 7.47008-143.36 46.08-148.48 92.16 10.24 11.52 7.6544-4.43904 88.32 11.52 19.20256 3.79904-34.97472 16.33536-58.88 17.92-64.27392 4.2624-135.8976 92.88192-71.68 70.4 46.9632-16.44288 183.45216 3.41248 107.52 12.8z" fill="#F6FAF5" ></path><path d="M754.31168 111.31392c18.304-8.31232 38.28736-12.84352 64.2944-2.60096 22.65856 8.92416 31.42912 12.66688 38.7456 14.32832 6.39488 1.45152 11.34848 1.2288 27.15904 0.1792 8.32256-0.55296 16.24832 3.54816 22.37696 7.7952 6.62528 4.59264 13.5552 11.06432 20.41088 18.73152 13.75744 15.38304 28.33152 36.83072 40.69376 61.39648 24.45056 48.57856 41.9328 112.81152 23.1168 168.32256-2.28096 6.73024-7.04512 31.96416-10.28864 59.48672-1.59232 13.50912-2.75712 27.06944-3.072 38.59712-0.33024 12.07296 0.34816 20.24192 1.53344 24.01024 2.53952 8.06656 3.9424 15.2832 3.54304 22.21312-0.41984 7.27296-2.75968 13.16096-5.96224 18.57792-2.91328 4.92288-7.00928 10.15808-10.90304 15.39584-4.11392 5.5296-8.87296 12.15744-14.18752 21.0048-4.35712 7.25504-6.13376 14.9248-8.4096 25.6-2.21184 10.38592-4.82048 23.04256-11.69152 36.94336-13.92128 28.16256-43.84 58.75712-115.8272 95.5904-19.43808 9.9456-30.99392 19.14368-38.11072 26.96448-6.98112 7.67488-10.07616 14.4384-12.01408 20.27264-1.05728 3.19232-1.70752 5.86752-2.63168 9.19552-0.8192 2.95168-1.94816 6.79424-3.90912 10.36544-2.15552 3.92448-5.32224 7.58016-10.06848 10.19392-4.4928 2.47296-9.55392 3.54816-14.8224 3.89632-14.99392 0.99584-23.16032 3.67104-27.63776 6.06976-4.06528 2.176-5.66016 4.4032-6.88384 6.46656-0.38656 0.6528-0.72192 1.27488-1.18784 2.1248-0.4096 0.7424-1.00864 1.82784-1.6896 2.88768-1.32608 2.06336-4.02176 5.75232-8.99328 7.69024-4.9408 1.92512-9.70496 1.19552-13.21728 0.15872-3.52-1.0368-7.31904-2.84416-11.37664-5.06368-10.40384-5.68832-20.32384-4.59008-31.58272 1.088-11.9808 6.0416-23.46752 16.27904-35.7888 26.8416-4.57984 3.92704-10.74432 6.9504-16.9344 9.4208-6.42048 2.56256-13.95968 4.94592-22.04416 7.21408-16.1024 4.5184-35.65056 8.92672-54.68928 13.45792-19.29472 4.59008-38.2336 9.344-54.05184 14.6816-16.41216 5.53984-27.17952 11.00288-32.06656 15.9488-5.23776 5.29664-12.64384 9.61536-20.64384 13.14304-8.19712 3.61728-17.90976 6.78656-28.52352 9.39776-21.2224 5.21728-46.87872 8.40192-72.83712 8.10752-25.89696-0.2944-52.75648-4.0576-76.0576-13.2224-23.3472-9.18272-43.97056-24.16384-55.5264-47.28832l-1.57952-3.15392 0.26112-3.51232c0.65024-8.79872 3.8656-21.73952 11.48928-33.52832 7.81824-12.09088 20.55936-23.31392 39.78752-26.78784 7.63392-1.37728 11.4304-2.30144 13.3376-2.92352 0.9088-2.30656 2.55744-6.34624 6.12864-11.33312 4.07808-5.69088 10.3936-12.34944 20.72576-20.64128 7.08096-5.68576 11.81696-13.99296 15.40096-24.6528 3.68128-10.94656 5.61152-22.4896 8.30976-34.93376 2.47808-11.43296 5.77792-24.57344 13.0176-34.34496 3.8528-5.19936 8.93696-9.64096 15.61088-12.40832 6.6048-2.74176 13.94688-3.50464 21.85216-2.67264 8.96512 0.94208 14.52032-1.45664 19.1488-5.4144 5.3504-4.57728 9.79968-11.51232 15.2704-20.864 9.7792-16.71936 23.18592-43.32544 54.58944-47.28576 1.20064-0.15104 2.28352-0.31488 3.25632-0.4736a61.32224 61.32224 0 0 1-1.81504-2.52416c-1.49248-2.21952-3.7888-5.99296-4.46976-10.65216-0.83456-5.69856 0.92416-11.45856 5.45536-15.87712 3.79136-3.6992 8.8448-5.7984 13.76768-7.19104 8.75264-2.48064 13.14304-3.75552 16.00256-5.08416 1.90208-0.8832 2.09664-1.28 2.51136-2.04032 1.02656-1.87904 2.05312-5.0688 4.12672-12.72832 1.93536-7.15776 4.52096-17.03424 8.77056-30.38464 4.49792-14.12864-0.23552-29.04576-6.95296-44.57984-2.97984-6.89152-6.91712-15.10912-8.92416-21.67296-1.65376-5.4144-4.16256-16.35072 3.50464-24.59392 0.00512-0.86272-0.07424-2.20928-0.34304-4.25472-0.60928-4.608-2.58816-14.27456-2.944-22.62016-0.38656-9.11872 0.76032-20.06016 7.44704-30.17472 6.74816-10.20416 17.91488-17.73056 33.90208-22.47424 28.64128-8.49664 41.89184-13.63456 49.0624-19.16672 5.51936-4.25728 7.872-9.024 10.43968-22.83264 1.02144-5.50144 0.81408-10.61888 0.25088-16.22272-0.50176-5.00736-1.59488-12.25472-1.23392-18.88256 0.4096-7.50848 2.58816-15.24736 8.53504-22.74304 5.64736-7.1168 14.08256-13.24288 25.57696-19.0464 9.62048-4.85376 14.32576-8.99072 16.80896-12.14976 2.31168-2.944 3.3152-5.8112 4.03456-9.6768 1.43616-7.7312 1.1648-23.51872 15.50336-38.5408 12.03712-12.61312 22.26176-19.69408 35.5584-25.17248 12.2112-5.0304 27.648-8.86016 48.28416-15.03744 9.69984-2.90304 18.33216-6.89664 26.78528-11.24864 8.04352-4.14208 17.05728-9.24416 25.50528-13.0816z m54.912 21.2224c-17.68192-6.96576-30.22848-4.31616-44.3264 2.0864-7.75168 3.52-14.90688 7.65696-24.37376 12.5312-9.05728 4.66432-19.28448 9.46176-31.16288 13.01504-22.51776 6.74048-35.23584 9.79968-45.8752 14.1824-9.55136 3.93728-16.87296 8.79104-26.78528 19.17696-7.61088 7.9744-6.51008 12.9152-8.8576 25.54624-1.17248 6.3104-3.3536 13.5296-9.07264 20.81024-5.55008 7.0656-13.72928 13.30176-25.40288 19.19232-9.79712 4.94336-14.62016 9.03168-17.05728 12.10112-2.13248 2.68544-2.85696 5.10464-3.02592 8.22528-0.22016 4.00384 0.43264 7.8592 1.14176 14.93248 0.65024 6.4768 1.1264 14.42048-0.55296 23.45984-2.83904 15.27296-6.65344 28.1472-19.97312 38.42304-11.67104 9.00352-29.94176 15.29088-57.41568 23.44192-12.06784 3.57888-17.3312 8.27136-19.83488 12.05248-2.56 3.87584-3.48672 8.68864-3.22048 14.9632 0.29952 7.05024 1.69984 12.416 2.74688 20.35712 0.448 3.37408 0.83456 7.52896 0.33024 11.58912-0.4352 3.52512-1.664 7.84384-4.8128 11.58656 0.09728 0.41472 0.23296 0.92416 0.4224 1.54368 1.44896 4.74112 4.20352 10.3552 7.93856 18.99264 6.71488 15.52896 15.49568 38.4896 7.85152 62.50496-4.04736 12.72064-6.48704 22.0416-8.45312 29.30688-1.8304 6.76608-3.58912 13.22752-6.37696 18.32448-3.40224 6.21824-8.05632 10.12736-14.18752 12.97408-4.53888 2.10944-10.35776 3.81184-16.9856 5.69344l0.39424 0.50688c1.40544 1.83552 3.55072 4.70784 4.99456 7.96416 1.48736 3.34848 3.10784 9.10592 0.32 15.3216-2.64192 5.89312-7.84384 8.99072-12.09088 10.71104-4.42368 1.79456-9.94304 2.97216-16.41216 3.7888-16.60928 2.09408-24.06144 14.92736-35.69408 34.81088-5.23776 8.95232-11.63264 19.61216-20.72832 27.392-9.82016 8.39936-22.31808 13.12-38.46912 11.42016-4.65152-0.48896-7.53664 0.09984-9.36192 0.8576-1.76128 0.7296-3.32032 1.93792-4.8512 4.00384-3.5328 4.76672-5.99296 12.65152-8.56832 24.53248-2.35776 10.8672-4.78208 24.92928-9.06496 37.66784-4.38016 13.02528-11.22304 26.48576-23.6416 36.4544-9.17248 7.36256-13.63456 12.37248-15.936 15.58528-2.15296 3.00544-2.59328 4.57472-3.68896 7.24224-0.59136 1.43872-1.6768 3.95776-3.76832 6.40768-2.20672 2.58816-4.8512 4.33152-7.61088 5.59872-4.75392 2.18368-11.5456 3.65056-20.66176 5.29664-10.92608 1.97376-18.06336 8.10496-22.84032 15.49312-3.9936 6.17216-6.1312 12.9792-7.01696 18.08896 8.20736 14.1312 22.12608 24.54016 40.24832 31.6672 19.53024 7.68256 43.0848 11.17696 66.97728 11.44832 23.82592 0.27136 47.33184-2.67008 66.432-7.36512 9.5488-2.35008 17.78432-5.08672 24.30464-7.9616 6.71488-2.96192 10.7904-5.71904 12.77184-7.72096 9.54624-9.65632 25.62048-16.64768 42.08128-22.20544 17.05728-5.75488 37.0304-10.74176 56.31488-15.33184 19.54304-4.64896 38.2464-8.86272 53.69856-13.19936 7.6928-2.15808 14.25664-4.25984 19.47136-6.34368 5.44256-2.17088 8.44288-3.94752 9.76384-5.07904 11.2768-9.66912 25.49248-22.48192 40.91904-30.26432 16.14848-8.14336 35.35104-11.65056 55.39584-0.68864 0.89344 0.48896 1.68192 0.90368 2.37568 1.25184 2.94912-4.88704 7.62112-10.816 16.60672-15.62624 8.78848-4.70528 20.88704-7.90784 38.02624-9.04448 2.6112-0.17408 3.72992-0.58624 4.06272-0.73216l0.08192-0.13312c0.3968-0.72192 0.88064-1.99936 1.68448-4.89216 0.69632-2.51904 1.67424-6.41536 3.00032-10.41152 2.83648-8.54272 7.54176-18.63168 17.37728-29.44 9.69728-10.65984 23.97696-21.57312 45.38624-32.52736 69.90848-35.76832 94.15424-63.13984 104.53504-84.14464 5.28128-10.68288 7.36256-20.41088 9.60512-30.93504 2.18112-10.23488 4.63104-22.00832 11.50208-33.4464 5.91616-9.85088 11.22048-17.22368 15.5904-23.10144 4.58752-6.16704 7.3984-9.74592 9.408-13.1456 1.71776-2.9056 2.31424-4.8512 2.43968-7.02208 0.14592-2.51392-0.2944-6.35136-2.40384-13.056-2.60864-8.29184-3.03104-20.36992-2.70336-32.39168 0.34304-12.56704 1.59488-26.94912 3.2384-40.89344 3.22816-27.38944 8.2176-55.11424 11.4688-64.70656 15.54176-45.85984 1.54624-102.32832-21.74208-148.59776-11.50464-22.8608-24.86528-42.37568-36.90752-55.84128-6.04416-6.7584-11.47904-11.6864-15.9104-14.7584-4.93056-3.41504-6.75584-3.24864-6.10304-3.2896-14.8608 0.9856-23.78752 1.67936-34.5216-0.75776-9.81248-2.2272-21.4272-7.18848-42.4576-15.47264z" fill="#000000" ></path><path d="M227.69664 834.42688c-29.18144 5.30432-38.4512 33.91744-39.44192 47.56224 37.7088 76.15488 197.63456 54.6944 225.55648 26.15552 27.92448-28.53888 151.88224-40.192 174.7072-59.96544 22.82752-19.77344 49.71008-45.04064 79.18592-28.736 29.4784 16.30464-0.27392-17.2288 61.9264-21.35296 32.20736-2.13504-4.98176-36.88704 74.05568-77.7088 137.28256-70.90688 104.76032-113.31328 126.47424-149.86752 21.71136-36.55424 34.39616-36.37248 25.37984-65.27232-7.36256-23.59552 6.10048-111.21152 11.4432-127.17056 33.18272-99.11552-61.0944-236.13184-90.78016-234.1632-29.68576 1.9712-26.85952 1.78176-69.15072-15.0784-42.29376-16.8576-62.96576 14.00832-104.72448 26.6112-41.75872 12.60032-54.48192 13.44512-75.70944 35.92192-21.22496 22.4768 2.69056 40.55296-38.51264 61.54496-41.2032 20.992-20.20608 37.85984-25.4208 66.29632-5.21216 28.43648-11.90912 34.50112-66.20672 50.74176-54.29504 16.2432-18.53696 63.02976-30.60992 73.664-12.07296 10.63168 25.86368 47.44448 14.13888 84.74112-16.02816 50.9824-6.74304 48.20224-38.79168 57.35168-32.0512 9.14688 28.992 30.38208-17.472 36.27264s-40.32256 77.11488-88.94208 71.91296c-48.61952-5.20192-24.95488 73.28768-62.6816 103.88224-37.72672 30.592-7.9488 30.02368-44.42368 36.65664z" fill="#83E668" ></path><path d="M891.39968 222.016c4.89216-1.4976 9.25952-0.26112 12.16768 1.2544 5.02784 2.61632 8.60928 7.49312 10.97472 11.22816 2.71104 4.28032 5.37088 9.63328 7.91552 15.6672 5.11232 12.1216 10.21952 28.1216 14.51776 46.4384 8.58624 36.59264 14.22848 83.70176 9.55904 129.40544-4.65664 45.57056-19.75296 91.35872-54.25664 123.10784-38.9888 35.8784-67.24352 58.74432-86.67392 73.24928l0.85248 0.04608c7.25504 0.3584 13.49888 0.48896 19.78368-0.10752 12.08576-1.14432 25.63584-5.09696 46.03904-17.78944 4.73856-2.94912 12.43392-5.16096 19.63008-0.50944 6.60736 4.27264 8.19456 11.49696 8.19968 16.41472 0.0128 10.28352-6.05696 21.79328-16.7552 31.81312-21.87776 20.49024-67.06176 39.0784-150.45376 37.75744-25.97376 1.8176-54.28224 12.23424-79.38816 26.816-13.82656 8.03072-26.28864 17.09568-36.56704 26.25536 19.71968-8.30464 45.19168-16.9216 75.10528-21.16096 11.1744-1.58464 19.55584-2.55744 24.76032-2.53184 1.36192 0.00512 2.9952 0.0768 4.6336 0.36608 1.09824 0.19456 4.69504 0.8576 7.7824 3.74528a13.4272 13.4272 0 0 1 3.14368 15.2192c-1.3056 3.02592-3.4176 4.94592-4.2496 5.67808-2.03264 1.78944-4.69248 3.41504-7.00672 4.74112a236.416 236.416 0 0 1-9.09568 4.86656c-6.54592 3.35872-16.36352 8.20992-26.34752 13.30432-41.84064 21.35296-107.00032 57.22112-158.7072 109.90592-55.06304 56.09984-132.46976 96.12544-205.03552 105.23392-72.87808 9.14944-143.41888-12.9664-178.29888-84.53888l-0.448-0.95232c-2.21184-4.83328-3.80416-10.73408-2.3168-16.91904 1.7152-7.14496 6.71488-11.49184 11.38432-13.98784 4.4288-2.368 9.60512-3.68384 14.41536-4.57728 4.9664-0.9216 10.60608-1.57696 16.42752-2.176 23.83872-2.46272 54.33088-4.54144 83.22816-17.87136 31.54432-14.5536 104.3072-45.85472 164.91264-101.53984 60.20096-55.31392 107.4816-133.77024 90.24256-243.53536-2.35264-14.976-3.46112-25.46944-3.20768-31.56736 0.064-1.53344 0.23808-3.63008 0.8576-5.72416 0.3072-1.04704 0.91136-2.74944 2.15296-4.49536a13.5168 13.5168 0 0 1 7.70048-5.29664 13.46304 13.46304 0 0 1 9.41056 1.07776c1.95328 0.99072 3.2896 2.2528 4.03456 3.03872 1.4976 1.5744 2.55744 3.32288 3.22816 4.52352 2.67776 4.8 5.632 12.97664 8.50688 22.28224 2.99264 9.67936 6.22592 21.6704 9.29792 34.81344 5.02528 21.50912 9.71776 46.52288 12.1984 69.88288 4.29056-17.16992 8.07424-38.4128 10.5216-64.48896 1.80224-19.21024 3.71456-32.72448 5.71136-41.32608 0.9344-4.02688 2.1504-8.22016 4.02688-11.456 0.8192-1.41568 2.86464-4.63872 6.83008-6.528a13.824 13.824 0 0 1 8.03328-1.19808 14.0544 14.0544 0 0 1 6.59456 2.87744c2.7136 2.1376 4.12672 4.82304 4.77952 6.1952 0.78592 1.65376 1.36704 3.392 1.81504 4.9792 0.90624 3.19744 1.6256 7.06304 2.21696 11.22304 1.1904 8.40192 2.03264 19.36384 2.45504 31.57504 0.8448 24.43264 0.0512 54.96576-3.37664 81.93792-1.71264 13.47072-4.1216 26.3936-7.45216 37.3632-0.37632 1.24416-0.77824 2.48832-1.19552 3.72736 10.44992-4.41088 23.2832-11.80672 35.9296-23.26272 32.46848-29.41184 65.30816-87.0272 50.26048-194.06336-3.904-27.78368-5.92128-47.33184-6.464-60.0704-0.26368-6.24384-0.20736-11.51488 0.36096-15.50336 0.26112-1.83808 0.77824-4.5568 2.11968-7.1424 1.29792-2.49856 5.49888-8.40448 13.56544-7.77216 5.94432 0.46336 9.41056 4.4928 10.31168 5.5552 1.43872 1.69472 2.56512 3.59936 3.4176 5.21728 1.75872 3.33056 3.4944 7.64416 5.17376 12.4032 3.40224 9.65376 7.14496 22.84288 10.74176 37.7856 7.19872 29.88544 14.10304 67.968 16.55296 100.91776 1.09312 14.70464 1.32608 28.8128 0.17408 40.90112a132.20352 132.20352 0 0 0 18.64704-17.69472c22.72768-26.24256 43.54816-71.232 27.6608-144.28672-4.22144-19.41248-6.55872-33.44128-7.32928-42.84416-0.3712-4.54144-0.4608-8.88576 0.13824-12.48512 0.2816-1.69472 0.90368-4.46208 2.64192-7.11424 2.06336-3.15136 6.15168-6.58944 12.07808-6.48448 4.72832 0.08448 8.01792 2.47808 9.41568 3.62752 1.65632 1.36448 2.9696 2.92864 3.9424 4.22912 1.98144 2.64448 3.88096 5.98528 5.64736 9.5104 3.59424 7.17312 7.53664 16.92672 11.3536 28.03712 7.64416 22.24128 15.23456 51.24608 18.5984 78.44864 1.68192 13.59872 2.3552 27.11296 1.30816 39.29344a105.85344 105.85344 0 0 1-1.32864 10.01472 48.48384 48.48384 0 0 0 6.21056-6.77888c14.84544-19.49184 30.2976-65.84576 14.73536-167.80544-3.96544-25.98656-5.3248-44.52096-4.51584-56.45824 0.37632-5.53728 1.31072-11.71456 4.19328-16.47872 1.59488-2.6368 4.48512-5.96992 9.24416-7.42912z m13.45536 54.39488c0.69888 6.42816 1.65888 13.77536 2.9312 22.11072 15.91808 104.2816 1.51296 159.35232-19.68128 187.17696-10.6624 14.00064-23.02464 20.97664-33.4848 23.13984-4.9024 1.01632-10.4448 1.17504-15.29088-0.62976-2.28352-0.85248-6.20544-2.82624-8.5888-7.232-2.93632-5.43232-1.77408-11.11808 0.76032-14.94272l0.52224-0.832c2.56768-4.3136 4.52352-11.0464 5.33248-20.43904 0.84224-9.82016 0.34048-21.43488-1.20832-33.96096l-0.08704-0.66304c-1.92256 46.8608-19.328 80.576-39.30368 103.63904-13.78048 15.91296-28.51584 26.46272-39.54432 32.7808-5.49632 3.1488-10.22976 5.3376-13.63968 6.63296-1.4976 0.56832-3.43296 1.23392-5.2608 1.5488a14.73536 14.73536 0 0 1-2.58304 0.22016 13.20192 13.20192 0 0 1-2.7648-0.30208 12.85632 12.85632 0 0 1-10.1632-12.53632 12.94336 12.94336 0 0 1 1.89952-6.784c1.25696-2.05568 2.80576-3.26144 3.16416-3.5456 0.16384-0.128 1.14432-1.05728 2.2912-4.0192 1.1136-2.88256 2.08384-6.90432 2.75712-12.15744 1.344-10.5088 1.30304-24.256 0.1408-39.90528a418.50368 418.50368 0 0 0-1.06752-11.9552c-2.40896 75.57376-30.87616 123.27424-62.25664 151.70304-19.4688 17.6384-39.68512 27.50464-54.55104 32.0384-7.17824 2.1888-14.05952 3.42784-19.3664 3.14368a21.29408 21.29408 0 0 1-4.95872-0.82176c-1.5872-0.47872-4.672-1.64096-7.18336-4.60544a13.73696 13.73696 0 0 1-2.72128-12.70272c0.97024-3.39712 2.97984-5.65248 4.12928-6.78656l0.44032-0.4608c2.24768-2.49856 5.09184-7.76192 7.79776-16.67584 2.75968-9.09568 4.93824-20.48 6.54848-33.15712 0.1536-1.19552 0.2944-2.40128 0.4352-3.61216-6.50496 25.77408-14.28992 43.88096-21.34016 56.18688-6.00576 10.48064-11.6992 17.14944-15.93088 20.65152-1.0112 0.83712-2.43712 1.91232-4.11904 2.73664a14.1312 14.1312 0 0 1-4.92544 1.408 13.0688 13.0688 0 0 1-6.2208-0.93952 12.93568 12.93568 0 0 1-6.976-6.96576 13.056 13.056 0 0 1-0.86016-6.9248 13.5424 13.5424 0 0 1 0.96-3.36896c0.60416-1.408 1.33632-2.47808 1.78944-3.08736a25.14688 25.14688 0 0 1 3.15904-3.45088c1.25696-1.16224 3.55328-5.05344 4.92288-14.20288 1.28512-8.5888 1.4464-19.6608 0.64-32.37632-0.5376-8.4352-1.49248-17.37216-2.73408-26.4832-9.48992 78.76352-51.456 139.01056-100.11392 183.7184-64.04864 58.84672-140.59776 91.6736-171.50976 105.9328-33.55904 15.48288-68.78208 17.76384-91.32032 20.09088-5.7728 0.59392-10.5216 1.1648-14.37952 1.8816a48.512 48.512 0 0 0-4.24192 0.96256c28.68224 57.83552 85.98784 77.68576 151.63904 69.44512 66.30656-8.32512 138.54208-45.38368 189.95456-97.7664 43.76832-44.59776 96.18432-77.44 137.0496-99.84256-19.38432 6.70464-34.94656 14.37184-45.94688 19.92192-4.672 2.35776-9.01376 4.58752-12.29568 6.04416-1.61024 0.7168-3.55072 1.51552-5.48352 2.02752a18.09152 18.09152 0 0 1-4.0576 0.62464 14.25152 14.25152 0 0 1-7.52384-1.80224 13.56288 13.56288 0 0 1-6.53056-8.7552 14.86336 14.86336 0 0 1 0.01792-6.62784c0.58368-2.60096 1.7792-4.9536 2.63168-6.51264 1.88416-3.43808 4.94336-7.99488 8.82176-13.5168 13.88288-19.77856 37.83936-40.22272 65.28-56.15872 27.49952-15.96928 59.81696-28.1856 90.99008-30.25408l0.53504-0.03584 0.53248 0.01024c65.29024 1.11104 102.26176-10.57792 121.93536-22.5024-9.2032 3.33312-17.65632 5.11488-25.99168 5.90592-8.17408 0.77312-15.90784 0.5632-23.46496 0.18944-7.73888-0.38144-15.06816-0.91392-23.64416-1.00352-8.704-0.09216-11.19488 0.94976-15.72864 1.24928-0.24576 0.01792-2.05568 0.17408-4.12672-0.2816a13.00224 13.00224 0 0 1-6.72512-3.83232c-3.66336-3.93472-3.96544-8.90368-2.92864-12.42368a13.13536 13.13536 0 0 1 2.70592-4.92032c0.63488-0.73216 1.23136-1.26208 1.56928-1.54624 0.6784-0.576 1.35168-1.04192 1.74592-1.31072 1.32096-0.89856 4.33152-2.74176 7.35744-4.6848 13.5808-8.7168 47.38816-31.77216 109.52192-88.94976 28.096-25.85344 41.8048-64.55296 46.12864-106.86976 4.30848-42.18112-0.896-86.35648-9.01376-120.95488a328.77312 328.77312 0 0 0-7.19872-26.04288zM743.73632 571.8784c0.04864-0.0384 0.18688-0.15104 0.38656-0.32512-0.128 0.10752-0.25344 0.22016-0.38656 0.32512z" fill="#000000" ></path><path d="M294.4 855.04c-62.45632 28.8128-134.4 18.80064-126.72 34.56 57.3952 117.76 241.68704 73.92512 348.16-34.56 106.47552-108.48512 183.04-101.75488 148.48-96.8576-90.90048 12.88192-118.32064 37.73952-87.04-6.8224 25.02656-35.65056 93.7728-78.12352 151.04-81.92 164.52608 2.79552 143.58784-39.68 124.16-35.264-25.6 5.824-103.68 20.66688-99.84 0 7.68-18.496-3.59936 14.79424 121.6-100.416 102.4-107.52 18.78784-335.0144 28.16-225.28256 31.48032 206.24384-77.15584 204.75648-70.4 194.56256 36.10368-54.4768-12.35712-151.04-5.12-117.76 33.49504 154.02752-98.56 192-91.07968 176.55552C752.64 533.76 719.03232 358.87616 728.32 424.96c31.11424 221.34528-157.50144 252.01408-143.36 238.08 37.27872-36.73856 18.10176-185.6 13.95968-141.46816-12.03712 128.26368-66.5344 152.19968-54.91968 141.46816 36.7488-33.96096-18.76992-225.28-9.88416-168.69376C570.30912 724.7744 356.85376 826.2272 294.4 855.04z" fill="#F6FAF5" ></path></svg>