<svg xmlns="http://www.w3.org/2000/svg" viewBox="0 0 1024 1024" width="200" height="200"><path d="M898.901333 234.837333c-18.602667-16.896-47.445333-15.36-64.341333 3.242667l-152.576 168.789333-90.794667-90.794666c-17.749333-17.749333-46.592-17.749333-64.341333 0s-17.749333 46.592 0 64.341333l94.037333 94.037333-196.437333 217.258667-236.373333-236.373333c-17.749333-17.749333-46.592-17.749333-64.341334 0s-17.749333 46.592 0 64.341333l270.165334 270.165333c8.533333 8.533333 20.138667 13.312 32.256 13.312h1.194666c12.458667-0.341333 24.234667-5.802667 32.597334-15.018666l225.450666-249.344 86.016 85.845333c8.874667 8.874667 20.48 13.312 32.256 13.312s23.381333-4.437333 32.256-13.312a45.533867 45.533867 0 0 0 0-64.341333l-89.258666-89.258667 155.648-172.202667c16.896-18.602667 15.36-47.445333-3.242667-64.341333z" fill="#222222" ></path></svg>