<svg xmlns="http://www.w3.org/2000/svg" viewBox="0 0 1024 1024" width="200" height="200"><path d="M641.024 371.6096c81.408 60.6208 122.0608 91.0336 125.952 131.7888a92.16 92.16 0 0 1 0 17.2032c-3.8912 40.7552-44.544 71.168-125.952 131.7888l-49.664 36.9664c-78.0288 58.1632-117.1456 87.2448-149.8112 85.9136a92.16 92.16 0 0 1-67.584-33.9968c-20.6848-25.3952-20.6848-74.0352-20.6848-171.4176v-115.712c0-97.28 0-146.0224 20.6848-171.4176a92.16 92.16 0 0 1 67.584-33.9968c32.768-1.3312 71.68 27.7504 149.8112 85.9136l49.5616 36.864z"  ></path></svg>