<svg xmlns="http://www.w3.org/2000/svg" viewBox="0 0 1024 1024" width="200" height="200"><path d="M649.5232 273.1008a71.68 71.68 0 0 1 101.376 101.376l-54.9888 54.9888c-36.7616 36.7616-55.0912 55.0912-56.9344 77.7216a61.44 61.44 0 0 0 0 9.6256c1.8432 22.528 20.1728 40.96 56.9344 77.824l55.0912 54.9888a71.7824 71.7824 0 0 1-101.376 101.2736l-55.0912-55.0912c-36.864-36.7616-55.1936-55.0912-77.824-56.832a61.44 61.44 0 0 0-9.5232 0c-22.6304 1.7408-40.96 20.0704-77.824 56.832l-54.9888 55.0912a71.68 71.68 0 0 1-101.376-101.376l55.0912-54.9888c36.864-36.7616 55.1936-55.0912 56.9344-77.7216a61.44 61.44 0 0 0 0-9.6256c-1.7408-22.528-20.1728-40.96-56.9344-77.824l-54.9888-54.9888a71.68 71.68 0 1 1 101.2736-101.2736l55.0912 55.0912c36.7616 36.7616 55.0912 55.0912 77.7216 56.832a61.44 61.44 0 0 0 9.6256 0c22.528-1.7408 40.96-20.0704 77.7216-56.832l54.9888-55.0912z"  ></path></svg>