<svg xmlns="http://www.w3.org/2000/svg" viewBox="0 0 1024 1024" width="200" height="200"><path d="M456.30584 186.942442a37.881892 37.881892 0 0 1 0.597237 75.721124h-0.597237a189.281478 189.281478 0 0 0-189.281478 186.167313v3.156825a37.881892 37.881892 0 1 1-75.721124 0 265.045261 265.045261 0 0 1 265.045262-265.002602h-0.04266z" fill="#03C957" ></path><path d="M476.142641 0.007252a472.841088 472.841088 0 0 1 342.984694 801.022835 38.22317 38.22317 0 0 1 43.001066 7.550783l151.271608 150.589051a37.711252 37.711252 0 0 1 0 53.538033 38.13785 38.13785 0 0 1-53.836652 0l-151.228948-150.589051a37.711252 37.711252 0 0 1-7.380143-43.214365A474.29152 474.29152 0 1 1 476.185301 0.007252z m0 75.721123a397.546562 397.546562 0 0 0 2.474268 795.093125 397.546562 397.546562 0 0 0 396.906666-397.546562 398.442418 398.442418 0 0 0-399.380934-397.546563z" fill="#222831" ></path></svg>