<svg xmlns="http://www.w3.org/2000/svg" viewBox="0 0 1024 1024" width="200" height="200"><path d="M512.9216 512m-412.8256 0a412.8256 412.8256 0 1 0 825.6512 0 412.8256 412.8256 0 1 0-825.6512 0Z" fill="#FFA89F" ></path><path d="M830.9248 813.3632a437.1968 437.1968 0 0 0-1.9968-604.8256 22.016 22.016 0 0 0-3.0208-3.1744 437.504 437.504 0 0 0-625.92 0 22.016 22.016 0 0 0-3.0208 3.1744 437.1968 437.1968 0 0 0-1.9968 604.8256 24.3712 24.3712 0 0 0 2.9696 3.1232 437.4016 437.4016 0 0 0 630.016 0 24.3712 24.3712 0 0 0 2.9696-3.1232zM126.6688 537.6h360.6528v82.3808A394.496 394.496 0 0 0 213.76 757.76a385.024 385.024 0 0 1-87.0912-220.16z m89.1904-273.664a394.9056 394.9056 0 0 0 271.36 135.0656V486.4H126.6688a385.3312 385.3312 0 0 1 89.1904-222.464zM899.2256 486.4h-360.704V399.0016a394.8032 394.8032 0 0 0 271.36-135.0656A385.1776 385.1776 0 0 1 899.2256 486.4z m-360.704-138.7008V125.696a385.792 385.792 0 0 1 235.9808 101.0176 343.7568 343.7568 0 0 1-235.9808 120.9856z m-51.2 0A343.7568 343.7568 0 0 1 251.392 226.7136a385.792 385.792 0 0 1 235.9296-101.0176z m0 323.6352v226.9696a385.9968 385.9968 0 0 1-238.2336-103.2192 343.04 343.04 0 0 1 238.2336-123.7504z m51.2 0a343.04 343.04 0 0 1 238.2336 123.7504 385.7408 385.7408 0 0 1-238.2336 103.2192z m0-51.2V537.6h360.704a385.3824 385.3824 0 0 1-87.04 220.16 394.5472 394.5472 0 0 0-273.664-137.7792z" fill="#092130" ></path></svg>