<svg xmlns="http://www.w3.org/2000/svg" viewBox="0 0 1024 1024" width="200" height="200"><path d="M75.52 255.488h869.461333v426.922667H75.52V255.488z" fill="#F6716F" ></path><path d="M75.52 591.146667s71.893333 42.837333 434.730667 42.837333c362.794667 0 434.773333-42.837333 434.773333-42.837333v91.264H75.434667v-91.306667z" fill="#F0504D" ></path><path d="M85.333333 654.634667a21.333333 21.333333 0 0 0 17.066667 20.906666l4.266667 0.426667h71.68v42.666667H106.666667a64 64 0 0 1-64-64V288.341333A63.786667 63.786667 0 0 1 103.168 224.426667l6.997333-0.085334H917.333333a64 64 0 0 1 64 64v366.293334a64 64 0 0 1-64 64h-72.789333v-42.666667H917.333333l4.266667-0.426667a21.333333 21.333333 0 0 0 17.066667-20.906666V288.341333a21.333333 21.333333 0 0 0-21.333334-21.333333h-810.666666a21.333333 21.333333 0 0 0-21.333334 21.333333v366.293334z" fill="#3D3D63" ></path><path d="M700.842667 675.968v42.666667H321.408v-42.666667h379.434667z" fill="#3D3D63" ></path><path d="M305.706667 702.421333a54.570667 54.570667 0 1 1-109.141334 0 54.570667 54.570667 0 0 1 109.141334 0z" fill="#FFDEAD" ></path><path d="M305.706667 702.421333a54.613333 54.613333 0 1 0-60.16 54.272l5.546666 0.298667a54.613333 54.613333 0 0 0 54.314667-49.024l0.298667-5.546667z m42.666666 0a97.28 97.28 0 1 1-194.56-0.042666 97.28 97.28 0 0 1 194.56 0z" fill="#3D3D63" ></path><path d="M305.706667 702.421333a54.570667 54.570667 0 0 1-109.141334 0s11.690667 30.122667 54.613334 29.866667c42.88-0.256 54.528-29.866667 54.528-29.866667z" fill="#FFC670" ></path><path d="M827.392 702.421333a54.570667 54.570667 0 1 1-109.098667 0 54.570667 54.570667 0 0 1 109.098667 0z" fill="#FFDEAD" ></path><path d="M827.392 702.421333a54.613333 54.613333 0 1 0-60.16 54.272l5.589333 0.298667a54.613333 54.613333 0 0 0 54.272-48.981333l0.298667-5.589334z m42.666667 0a97.28 97.28 0 1 1-194.56-0.042666 97.28 97.28 0 0 1 194.56 0z" fill="#3D3D63" ></path><path d="M827.392 702.421333a54.570667 54.570667 0 0 1-109.141333 0s11.690667 30.122667 54.613333 29.866667c42.88-0.256 54.528-29.866667 54.528-29.866667z" fill="#FFC670" ></path><path d="M431.232 366.506667a21.333333 21.333333 0 0 1 21.333333-21.333334h118.869334a21.333333 21.333333 0 0 1 21.333333 21.333334v309.461333h-161.536V366.549333z" fill="#EDF4FF" ></path><path d="M592.768 366.506667a21.333333 21.333333 0 0 0-21.333333-21.333334v-42.666666a64 64 0 0 1 64 64v352.128H388.565333V366.506667a64 64 0 0 1 64-64v42.666666l-4.266666 0.426667a21.333333 21.333333 0 0 0-17.066667 20.906667v309.418666h161.536V366.506667z m-21.333333-64v42.666666h-118.869334v-42.666666h118.869334z" fill="#3D3D63" ></path><path d="M490.496 676.48V344.661333a21.333333 21.333333 0 1 1 42.666667 0v331.861334a21.333333 21.333333 0 0 1-42.666667 0z" fill="#3D3D63" ></path><path d="M85.888 353.152c0-4.693333 3.84-8.533333 8.533333-8.533333H183.04c4.693333 0 8.533333 3.84 8.533333 8.533333v131.84a8.533333 8.533333 0 0 1-1.962666 5.461333l-48.298667 58.410667a8.533333 8.533333 0 0 1-6.613333 3.072h-40.277334a8.533333 8.533333 0 0 1-8.533333-8.533333V353.152z" fill="#96DDFF" ></path><path d="M191.573333 485.034667v-131.84a8.533333 8.533333 0 0 0-6.826666-8.405334l-1.706667-0.170666v-42.666667a51.2 51.2 0 0 1 51.2 51.2v131.882667c0 11.946667-4.181333 23.466667-11.776 32.64L174.165333 576a51.242667 51.242667 0 0 1-39.466666 18.602667h-40.277334a51.2 51.2 0 0 1-51.2-51.2v-190.293334a51.2 51.2 0 0 1 51.2-51.2v42.666667l-1.706666 0.170667a8.533333 8.533333 0 0 0-6.826667 8.362666v190.293334a8.533333 8.533333 0 0 0 6.826667 8.32l1.706666 0.213333h40.277334l1.877333-0.213333a8.490667 8.490667 0 0 0 3.328-1.578667l1.408-1.365333 48.298667-58.368a8.533333 8.533333 0 0 0 1.493333-2.56l0.469333-2.858667z m-8.533333-183.04v42.666666H94.421333v-42.666666H183.04z" fill="#3D3D63" ></path><path d="M135.594667 355.797333a21.333333 21.333333 0 0 1 26.581333 33.408c-16.597333 13.226667-22.613333 27.477333-26.24 43.861334a21.333333 21.333333 0 0 1-41.685333-9.216c5.034667-22.698667 14.890667-46.933333 41.386666-68.053334z" fill="#FFFFFF" ></path><path d="M691.584 353.152c0-4.693333 3.84-8.533333 8.533333-8.533333h24.917334c4.693333 0 8.533333 3.84 8.533333 8.533333v126.421333a8.533333 8.533333 0 0 1-8.533333 8.533334h-24.917334a8.533333 8.533333 0 0 1-8.533333-8.533334V353.152z" fill="#96DDFF" ></path><path d="M776.234667 479.573333a51.2 51.2 0 0 1-51.2 51.2h-24.917334a51.2 51.2 0 0 1-51.2-51.2V353.152a51.2 51.2 0 0 1 51.2-51.2v42.666667l-1.706666 0.170666a8.533333 8.533333 0 0 0-6.826667 8.362667v126.421333l0.128 1.706667a8.533333 8.533333 0 0 0 6.698667 6.613333l1.706666 0.213334h24.96l1.706667-0.213334a8.533333 8.533333 0 0 0 6.613333-6.613333l0.170667-1.706667V353.152a8.533333 8.533333 0 0 0-6.826667-8.362667l-1.706666-0.170666v-42.666667a51.2 51.2 0 0 1 51.2 51.2v126.421333z m-51.2-177.621333v42.666667h-24.917334v-42.666667h24.96z" fill="#3D3D63" ></path><path d="M290.389333 353.152c0-4.693333 3.84-8.533333 8.533334-8.533333h24.96c4.693333 0 8.533333 3.84 8.533333 8.533333v126.421333a8.533333 8.533333 0 0 1-8.533333 8.533334h-24.96a8.533333 8.533333 0 0 1-8.533334-8.533334V353.152z" fill="#96DDFF" ></path><path d="M375.04 479.573333a51.2 51.2 0 0 1-51.157333 51.2h-24.917334a51.2 51.2 0 0 1-51.2-51.2V353.152a51.2 51.2 0 0 1 51.2-51.2v42.666667l-1.706666 0.170666a8.533333 8.533333 0 0 0-6.826667 8.362667v126.421333l0.128 1.706667a8.533333 8.533333 0 0 0 6.656 6.613333l1.706667 0.213334h24.96l1.706666-0.213334a8.533333 8.533333 0 0 0 6.656-6.613333l0.170667-1.706667V353.152a8.533333 8.533333 0 0 0-6.826667-8.362667l-1.706666-0.170666v-42.666667a51.2 51.2 0 0 1 51.2 51.2v126.421333zM323.925333 301.952v42.666667h-24.917333v-42.666667h24.917333z" fill="#3D3D63" ></path><path d="M832.426667 353.152c0-4.693333 3.84-8.533333 8.533333-8.533333h24.917333c4.693333 0 8.533333 3.84 8.533334 8.533333v126.421333a8.533333 8.533333 0 0 1-8.533334 8.533334h-24.917333a8.533333 8.533333 0 0 1-8.533333-8.533334V353.152z" fill="#96DDFF" ></path><path d="M917.077333 479.573333a51.2 51.2 0 0 1-51.2 51.2h-24.917333a51.2 51.2 0 0 1-51.2-51.2V353.152a51.2 51.2 0 0 1 51.2-51.2v42.666667l-1.706667 0.170666a8.533333 8.533333 0 0 0-6.826666 8.362667v126.421333l0.128 1.706667a8.533333 8.533333 0 0 0 6.698666 6.613333l1.706667 0.213334h24.96l1.706667-0.213334a8.533333 8.533333 0 0 0 6.613333-6.613333l0.170667-1.706667V353.152a8.533333 8.533333 0 0 0-6.826667-8.362667l-1.706667-0.170666v-42.666667a51.2 51.2 0 0 1 51.2 51.2v126.421333z m-51.2-177.621333v42.666667h-24.917333v-42.666667h24.96z" fill="#3D3D63" ></path></svg>