<svg xmlns="http://www.w3.org/2000/svg" viewBox="0 0 1024 1024" width="200" height="200"><path d="M230.997333 883.882667a40.362667 40.362667 0 0 0 58.538667 29.184l201.557333-104.362667a40.362667 40.362667 0 0 1 37.717334 0l200.448 106.922667a40.533333 40.533333 0 0 0 58.965333-42.666667L750.933333 649.216a40.704 40.704 0 0 1 11.861334-35.754667l163.413333-157.696a40.448 40.448 0 0 0-22.016-69.12l-159.829333-24.064a722.432 722.432 0 0 1-513.365334 521.301334z" fill="#FC7032" ></path><path d="M653.141333 336.725333a565.333333 565.333333 0 0 1-382.976 312.746667L231.082667 870.4a40.277333 40.277333 0 0 0 0 13.568 722.432 722.432 0 0 0 513.28-521.386667l-64.768-9.813333a40.277333 40.277333 0 0 1-26.453334-16.042667z" fill="#FF8345" ></path><path d="M653.141333 336.725333a36.010667 36.010667 0 0 1-3.84-6.229333l-55.893333-114.688A426.666667 426.666667 0 0 1 207.018667 460.8a425.984 425.984 0 0 1-114.517334-15.616 44.458667 44.458667 0 0 0 4.864 5.888l162.133334 159.402667a40.448 40.448 0 0 1 11.434666 35.84l-0.426666 2.816a565.333333 565.333333 0 0 0 382.634666-312.405334z" fill="#FF9552" ></path><path d="M477.269333 125.952L375.466667 329.045333a40.448 40.448 0 0 1-30.549334 22.016l-224.768 31.402667a40.533333 40.533333 0 0 0-27.648 63.061333A425.984 425.984 0 0 0 207.018667 460.8a426.666667 426.666667 0 0 0 386.389333-244.992L549.802667 126.293333a40.448 40.448 0 0 0-72.533334-0.341333z" fill="#FFA56A" ></path><path d="M512.177004 202.447658m15.467653-7.212685l5.877708-2.74082q15.467653-7.212685 22.680338 8.254968l50.019971 107.268173q7.212685 15.467653-8.254968 22.680337l-5.877708 2.740821q-15.467653 7.212685-22.680338-8.254968l-50.019971-107.268173q-7.212685-15.467653 8.254968-22.680338Z" fill="#FFFFFF" ></path></svg>