<svg xmlns="http://www.w3.org/2000/svg" viewBox="0 0 1024 1024" width="200" height="200"><path d="M481.877333 663.210667h213.333334v55.466666a354.133333 354.133333 0 0 0 126.890666-474.368 1029.12 1029.12 0 0 1-340.224 418.901334zM363.605333 736.853333c-9.130667 4.778667-18.261333 9.557333-27.477333 14.08a103.082667 103.082667 0 0 0 95.744 65.706667h160.256a102.997333 102.997333 0 0 0 102.4-97.962667 354.048 354.048 0 0 1-331.093333 18.176z" fill="#FF8E12" ></path><path d="M694.954667 663.210667h-213.333334a1014.528 1014.528 0 0 1-118.272 73.642666 354.048 354.048 0 0 0 331.093334-18.176v-4.864zM606.549333 830.72H417.450667a29.610667 29.610667 0 0 0 0 59.050667h189.098666a29.610667 29.610667 0 0 0 0-59.050667zM576.938667 903.765333H447.061333a29.525333 29.525333 0 0 0 0 59.050667h129.877334a29.525333 29.525333 0 0 0 0-59.050667z" fill="#FF8E12" ></path><path d="M731.136 137.216a803.072 803.072 0 0 1-546.56 413.013333 354.56 354.56 0 0 0 145.066667 168.448v-55.466666h152.234666a1029.12 1029.12 0 0 0 340.224-418.901334 355.84 355.84 0 0 0-90.965333-107.093333zM329.301333 718.677333a101.205333 101.205333 0 0 0 6.826667 32.256c9.216-4.522667 18.346667-9.301333 27.477333-14.08a337.322667 337.322667 0 0 1-34.304-18.176z" fill="#FCA315" ></path><path d="M481.877333 663.210667H329.045333v55.466666a337.322667 337.322667 0 0 0 34.133334 18.176 1014.528 1014.528 0 0 0 118.698666-73.642666z" fill="#FCA315" ></path><path d="M731.136 137.216A353.450667 353.450667 0 0 0 616.448 76.8 607.146667 607.146667 0 0 1 162.133333 361.642667a358.4 358.4 0 0 0-4.010666 53.674666 352.853333 352.853333 0 0 0 26.709333 134.912 803.072 803.072 0 0 0 546.304-413.013333z" fill="#FCB138" ></path><path d="M162.133333 361.642667A607.146667 607.146667 0 0 0 616.448 76.8 354.389333 354.389333 0 0 0 162.133333 361.642667z" fill="#FFC65E" ></path><path d="M395.434667 427.349333a13.397333 13.397333 0 0 1-10.069334-22.357333l98.645334-110.933333 50.602666-56.405334a13.482667 13.482667 0 0 1 23.466667 8.96V412.928A13.397333 13.397333 0 0 1 545.536 426.666667h-79.445333z" fill="#FFFFFF" ></path><path d="M630.613333 392.021333a11.434667 11.434667 0 0 1 8.533334 19.029334l-102.4 113.92-54.528 59.733333a11.349333 11.349333 0 0 1-19.797334-7.68V403.712A11.264 11.264 0 0 1 473.941333 392.533333h81.493334z" fill="#FFFFFF" ></path></svg>