<svg xmlns="http://www.w3.org/2000/svg" viewBox="0 0 1024 1024" width="200" height="200"><path d="M281.6 439.296a43.52 43.52 0 0 1 39.7312-77.5168l54.1696 27.648c23.8592 12.288 35.84 18.432 45.056 13.9264a20.48 20.48 0 0 0 3.4816-2.048c8.0896-6.144 8.0896-19.6608 8.0896-46.4896v-65.536c0-13.9264-0.1024-28.8768 1.4336-40.96a65.7408 65.7408 0 0 1 25.9072-46.6944 65.536 65.536 0 0 1 12.0832-6.7584l8.192-2.7648a68.4032 68.4032 0 0 1 45.2608 5.12c11.0592 5.0176 23.8592 13.0048 35.7376 20.2752l144.5888 89.088c11.264 6.8608 23.7568 14.336 32.768 21.8112 8.192 6.656 20.48 18.5344 24.6784 36.9664l0.8192 5.12a41.984 41.984 0 0 1 0.4096 3.072V377.344l-0.2048 10.0352a65.536 65.536 0 0 1-27.8528 44.032c-9.4208 7.168-22.1184 14.2336-33.792 20.6848l-34.304 19.1488c-26.3168 14.6432-39.5264 22.016-40.5504 32.768a20.48 20.48 0 0 0 0.1024 4.5056c1.3312 10.6496 14.848 17.6128 41.6768 31.3344l31.744 16.2816c11.6736 5.9392 24.576 12.288 34.0992 18.944a65.536 65.536 0 0 1 29.184 42.5984 65.536 65.536 0 0 1 0.9216 13.4144 65.6384 65.6384 0 0 1-23.4496 46.08c-8.6016 7.8848-20.3776 15.872-31.1296 23.3472l-145.92 101.0688c-12.288 8.3968-25.088 17.408-36.2496 23.1424-10.9568 5.5296-31.744 14.1312-54.9888 4.9152a65.3312 65.3312 0 0 1-12.4928-6.4512c-20.7872-13.9264-25.6-35.84-27.2384-48.128-1.6384-12.3904-1.4336-28.0576-1.4336-42.9056v-63.0784c0-27.8528 0-41.7792-8.3968-47.9232a20.48 20.48 0 0 0-3.6864-2.048c-9.4208-4.3008-21.504 2.4576-45.8752 15.9744l-51.5072 28.7744a43.52 43.52 0 0 1-42.3936-75.9808l75.9808-42.3936c26.3168-14.7456 39.5264-22.1184 40.5504-32.768a20.48 20.48 0 0 0-0.1024-4.5056c-1.4336-10.752-14.848-17.6128-41.6768-31.3344L281.6 439.296z m322.1504 229.0688c22.528-15.5648 33.792-23.3472 34.0992-33.5872a20.48 20.48 0 0 0-0.3072-4.1984c-1.6384-10.1376-13.824-16.384-38.1952-28.7744l-23.552-12.0832c-23.9616-12.288-35.84-18.432-45.056-14.0288a20.48 20.48 0 0 0-3.584 2.1504c-8.0896 6.144-8.0896 19.6608-8.0896 46.4896v28.3648c0 30.72 0 46.08 9.1136 52.224a20.48 20.48 0 0 0 3.8912 2.048c10.24 3.9936 22.8352-4.7104 48.128-22.2208l23.552-16.384zM597.8112 410.624c24.3712-13.5168 36.5568-20.3776 37.888-30.72a20.48 20.48 0 0 0 0-4.096c-0.8192-10.3424-12.6976-17.7152-36.4544-32.256l-20.8896-12.9024c-24.6784-15.1552-37.0688-22.8352-46.7968-18.6368a20.48 20.48 0 0 0-3.7888 2.048c-8.704 6.144-8.704 20.6848-8.704 49.7664v24.576c0 27.648 0 41.6768 8.3968 47.8208a20.48 20.48 0 0 0 3.584 2.048c9.4208 4.4032 21.6064-2.4576 45.8752-15.9744l20.8896-11.6736z"  ></path></svg>