<svg xmlns="http://www.w3.org/2000/svg" viewBox="0 0 64 64" width="64" height="64">
  <path d="M32 4C20 4 12 14 12 24c0 7 3.5 13 9 17v4c0 2 1.5 3 3 3h16c1.5 0 3-1 3-3v-4c5.5-4 9-10 9-17C52 14 44 4 32 4z" fill="#F9A825"/>
  <path d="M32 4C20 4 12 14 12 24c0 7 3.5 13 9 17v4c0 2 1.5 3 3 3h16c1.5 0 3-1 3-3v-4c5.5-4 9-10 9-17C52 14 44 4 32 4z" fill="none" stroke="#E65100" stroke-width="2"/>
  <rect x="24" y="44" width="16" height="4" rx="1" fill="#E65100"/>
  <rect x="26" y="48" width="12" height="3" rx="1" fill="#BF360C"/>
  <line x1="29" y1="52" x2="35" y2="52" stroke="#E65100" stroke-width="1.5" stroke-linecap="round"/>
  <path d="M26 30c0-3 2-5 6-5s6 2 6 5" fill="none" stroke="#FFF9C4" stroke-width="2" stroke-linecap="round"/>
</svg>
