<svg xmlns="http://www.w3.org/2000/svg" viewBox="0 0 1024 1024" width="200" height="200"><path d="M426.7008 269.7216c29.3888-47.104 44.032-70.656 63.1808-77.9264a61.44 61.44 0 0 1 44.2368 0c19.1488 7.3728 33.792 30.9248 63.1808 77.9264 10.752 17.2032 16.1792 25.9072 23.552 32.0512a61.44 61.44 0 0 0 18.7392 10.8544c9.1136 3.2768 19.2512 3.6864 39.5264 4.4032 55.5008 1.8432 83.2512 2.8672 99.2256 15.7696a61.44 61.44 0 0 1 22.016 38.1952c3.1744 20.2752-9.8304 44.7488-35.84 93.7984-9.6256 17.92-14.336 26.8288-16.0768 36.352a61.44 61.44 0 0 0 0 21.7088c1.7408 9.5232 6.4512 18.432 15.9744 36.352 26.112 49.0496 39.1168 73.5232 35.9424 93.7984a61.44 61.44 0 0 1-22.016 38.1952c-15.9744 12.9024-43.7248 13.9264-99.2256 15.7696-20.2752 0.7168-30.4128 1.024-39.5264 4.4032a61.44 61.44 0 0 0-18.7392 10.8544c-7.3728 6.144-12.8 14.848-23.552 32.0512-29.3888 47.104-44.032 70.656-63.1808 77.9264a61.44 61.44 0 0 1-44.2368 0c-19.1488-7.3728-33.792-30.9248-63.1808-77.9264-10.752-17.2032-16.1792-25.9072-23.552-32.0512a61.44 61.44 0 0 0-18.7392-10.8544c-9.1136-3.2768-19.2512-3.6864-39.5264-4.4032-55.5008-1.8432-83.2512-2.8672-99.1232-15.7696a61.44 61.44 0 0 1-22.1184-38.1952c-3.1744-20.2752 9.8304-44.7488 35.84-93.7984 9.6256-17.92 14.336-26.8288 16.0768-36.352a61.44 61.44 0 0 0 0-21.7088c-1.7408-9.5232-6.4512-18.432-15.9744-36.352-26.112-49.0496-39.1168-73.5232-35.9424-93.7984A61.44 61.44 0 0 1 245.76 332.8c15.872-12.9024 43.6224-13.9264 99.1232-15.7696 20.2752-0.7168 30.4128-1.024 39.5264-4.4032a61.44 61.44 0 0 0 18.7392-10.8544c7.3728-6.144 12.8-14.848 23.552-32.0512z"  ></path></svg>