<svg xmlns="http://www.w3.org/2000/svg" viewBox="0 0 1024 1024" width="200" height="200"><path d="M624.64 204.8c86.528 0 129.9456 0 158.72 24.576 4.096 3.3792 7.8848 7.168 11.264 11.264 24.576 28.7744 24.576 72.192 24.576 158.72v225.28c0 86.528 0 129.9456-24.576 158.72-3.3792 4.096-7.168 7.8848-11.264 11.264C754.4832 819.2 711.0656 819.2 624.64 819.2H399.36c-86.528 0-129.9456 0-158.72-24.576a102.912 102.912 0 0 1-11.264-11.264C204.8 754.4832 204.8 711.0656 204.8 624.64V399.36c0-86.528 0-129.9456 24.576-158.72 3.3792-4.096 7.168-7.8848 11.264-11.264C269.5168 204.8 312.9344 204.8 399.36 204.8h225.28zM286.72 640c0 43.3152 0 65.024 12.288 79.36a51.2 51.2 0 0 0 5.632 5.632c14.336 12.288 36.0448 12.288 79.36 12.288h256c43.3152 0 65.024 0 79.36-12.288a51.2 51.2 0 0 0 5.632-5.632c12.288-14.336 12.288-36.0448 12.288-79.36v-256c0-43.3152 0-65.024-12.288-79.36a51.2 51.2 0 0 0-5.632-5.632c-14.336-12.288-36.0448-12.288-79.36-12.288h-256c-43.3152 0-65.024 0-79.36 12.288a51.2 51.2 0 0 0-5.632 5.632c-12.288 14.336-12.288 36.0448-12.288 79.36v256z m368.64-81.92c0 43.3152 0 65.024-12.288 79.36a51.2 51.2 0 0 1-5.632 5.7344c-14.336 12.288-36.0448 12.288-79.36 12.288h-92.16c-43.3152 0-65.024 0-79.36-12.288a51.2 51.2 0 0 1-5.7344-5.7344c-12.288-14.336-12.288-36.0448-12.288-79.36v-92.16c0-43.3152 0-65.024 12.288-79.36a51.2 51.2 0 0 1 5.7344-5.7344c14.336-12.288 36.0448-12.288 79.36-12.288h92.16c43.3152 0 65.024 0 79.36 12.288a51.2 51.2 0 0 1 5.7344 5.7344c12.288 14.336 12.288 36.0448 12.288 79.36v92.16z"  ></path></svg>