<svg xmlns="http://www.w3.org/2000/svg" viewBox="0 0 1024 1024" width="200" height="200"><path d="M512 716.8c26.9312 0 47.7184 23.8592 44.032 50.688l-9.0112 62.2592a35.4304 35.4304 0 0 1-70.144 0l-8.8064-62.2592A44.4416 44.4416 0 0 1 512 716.8z m-212.1728-55.5008a44.8512 44.8512 0 1 1 62.8736 62.7712l-58.0608 44.3392a35.1232 35.1232 0 0 1-49.152-49.152l44.3392-57.9584z m357.0688-4.5056a44.8512 44.8512 0 0 1 67.2768 4.5056l44.2368 57.9584a35.1232 35.1232 0 0 1-49.152 49.152l-57.9584-44.3392a44.8512 44.8512 0 0 1-4.4032-67.2768zM511.7952 368.4352a143.36 143.36 0 1 1 0 286.72 143.36 143.36 0 0 1 0-286.72z m-255.3856 99.6352a44.4416 44.4416 0 1 1 0 87.8592l-62.1568-8.9088a35.4304 35.4304 0 0 1 0-70.0416l62.1568-8.9088z m510.976 0l62.3616 8.9088a35.4304 35.4304 0 0 1 0 70.0416l-62.2592 8.9088a44.4416 44.4416 0 1 1 0-87.8592z m-508.928-209.5104a35.1232 35.1232 0 0 1 46.1824-3.072l58.0608 44.3392a44.8512 44.8512 0 1 1-62.8736 62.8736l-44.2368-58.0608a35.0208 35.0208 0 0 1 2.9696-46.08z m460.8-3.072a35.2256 35.2256 0 0 1 49.152 49.152l-44.2368 58.0608a44.8512 44.8512 0 1 1-62.8736-62.8736l57.9584-44.3392zM511.2832 163.84c18.0224 0 33.28 13.312 35.84 31.1296l8.704 61.1328a44.6464 44.6464 0 1 1-88.4736 0.6144l7.9872-61.44a36.2496 36.2496 0 0 1 35.84-31.4368z"  ></path></svg>