<svg xmlns="http://www.w3.org/2000/svg" viewBox="0 0 1024 1024" width="200" height="200"><path d="M512 650.24a71.68 71.68 0 1 1 0 143.36 71.68 71.68 0 0 1 0-143.36z m0-204.8a248.832 248.832 0 0 1 181.1456 78.0288l0.9216 1.024 0.4096 0.4096v0.2048l0.3072 0.2048a51.2 51.2 0 0 1-71.3728 72.704l-7.168-7.0656v0.2048l-5.0176-5.12A146.5344 146.5344 0 0 0 512 547.84a146.432 146.432 0 0 0-103.6288 42.8032l-0.4096 0.4096a51.2 51.2 0 0 1-78.6432-65.6384l32.1536 26.624-32.1536-26.7264 0.2048-0.3072 0.4096-0.4096 0.9216-1.024a138.4448 138.4448 0 0 1 12.4928-12.6976A249.0368 249.0368 0 0 1 512 445.44z m0-215.04c99.5328 0 178.176 35.2256 231.424 69.632a444.416 444.416 0 0 1 77.7216 64.2048l4.608 5.12 1.4336 1.4336 0.3072 0.6144h0.2048v0.2048h0.1024l5.8368 8.704a51.2 51.2 0 0 1-84.48 56.9344l-0.3072-0.3072-2.56-2.7648a343.552 343.552 0 0 0-58.6752-48.128A321.2288 321.2288 0 0 0 512 332.8a321.536 321.536 0 0 0-175.616 53.248 342.016 342.016 0 0 0-58.7776 48.128l-2.4576 2.7648-0.4096 0.3072a51.2 51.2 0 0 1-78.5408-65.536v-0.1024h0.1024l0.2048-0.2048 0.4096-0.6144 1.4336-1.536a359.7312 359.7312 0 0 1 20.992-21.4016 444.416 444.416 0 0 1 61.3376-47.7184A423.7312 423.7312 0 0 1 512 230.4z"  ></path></svg>