<svg xmlns="http://www.w3.org/2000/svg" viewBox="0 0 1024 1024" width="200" height="200"><path d="M716.8 236.8512a51.2 51.2 0 0 1 51.2 51.2v409.6a89.6 89.6 0 0 1-89.6 89.6h-25.6a89.6 89.6 0 1 1 0-179.2 12.8 12.8 0 0 0 12.8-12.8v-197.632c0-26.0096 0-39.0144-7.3728-47.616a30.5152 30.5152 0 0 0-3.3792-3.4816c-8.6016-7.2704-21.6064-7.2704-47.616-7.2704h-88.064c-26.0096 0-38.912 0-47.616 7.2704a30.5152 30.5152 0 0 0-3.3792 3.4816c-7.3728 8.6016-7.3728 21.504-7.3728 47.5136v300.032a89.6 89.6 0 0 1-89.6 89.6h-25.6a89.6 89.6 0 1 1 0-179.2 12.8 12.8 0 0 0 12.8-12.8v-307.2a51.2 51.2 0 0 1 51.2-51.2h307.2z"  ></path></svg>