<svg xmlns="http://www.w3.org/2000/svg" viewBox="0 0 1024 1024" width="200" height="200"><path d="M586.752 184.32c112.64 0 168.96 0 206.336 31.8464 5.2224 4.5056 10.24 9.5232 14.6432 14.848 31.9488 37.376 31.9488 93.5936 31.9488 206.2336v149.504c0 112.64 0 168.96-31.9488 206.2336a133.12 133.12 0 0 1-14.6432 14.848C755.712 839.68 699.392 839.68 586.752 839.68H437.248c-112.64 0-168.96 0-206.336-31.8464a133.12 133.12 0 0 1-14.6432-14.848C184.32 755.712 184.32 699.392 184.32 586.752V437.248c0-112.64 0-168.96 31.9488-206.2336a133.12 133.12 0 0 1 14.6432-14.848C268.288 184.32 324.608 184.32 437.248 184.32h149.504zM442.0608 540.672c-26.624-11.5712-42.1888-17.92-66.048 1.1264a139.264 139.264 0 0 0-55.5008 112.9472c0 21.0944 35.84 86.7328 191.6928 86.7328 166.0928 0 191.6928-65.6384 191.6928-86.7328a139.264 139.264 0 0 0-55.5008-113.0496c-23.4496-18.7392-39.424-12.5952-66.1504-1.024a175.3088 175.3088 0 0 1-140.1856 0z m70.144-269.312a107.2128 107.2128 0 1 0 0 214.2208c59.1872 0 107.3152-47.9232 107.3152-107.1104 0-59.0848-48.128-107.1104-107.3152-107.1104z"  ></path></svg>