<svg xmlns="http://www.w3.org/2000/svg" viewBox="0 0 1024 1024" width="200" height="200"><path d="M109.645848 576.19462l87.449201 76.909785 317.130604-303.437348 319.236491 315.024717 82.70846-83.756413-404.579805-382.453022-401.944951 377.712281z" fill="#FC1717" ></path><path d="M833.641793 692.916647L514.006082 377.50269 197.653957 680.191501 79.973801 576.683665l431.65692-405.627759 433.074152 409.39041-111.06308 112.480312z m-319.206549-371.075243L833.272515 636.466901l54.35384-55.042496-376.085458-355.515633-372.232983 349.796803 57.208265 50.321715 317.909084-304.185886z"  ></path><path d="M197.594074 935.932008c-11.02846 0-19.961014-8.932554-19.961014-19.961014V650.798908c0-11.02846 8.932554-19.961014 19.961014-19.961013s19.961014 8.932554 19.961014 19.961013v265.172086c0 11.02846-8.932554 19.961014-19.961014 19.961014zM831.855283 935.932008c-11.02846 0-19.961014-8.932554-19.961014-19.961014V667.925458c0-11.02846 8.932554-19.961014 19.961014-19.961014s19.961014 8.932554 19.961013 19.961014v248.045536c0 11.02846-8.932554 19.961014-19.961013 19.961014z"  ></path><path d="M916.170604 935.932008h-806.524756c-11.02846 0-19.961014-8.932554-19.961014-19.961014s8.932554-19.961014 19.961014-19.961013h806.524756c11.02846 0 19.961014 8.932554 19.961014 19.961013s-8.932554 19.961014-19.961014 19.961014z"  ></path><path d="M643.752671 935.932008H382.572788V614.639532c0-12.166238 9.900663-22.066901 22.0669-22.0669h217.036101c12.166238 0 22.066901 9.900663 22.066901 22.0669v321.292476z m-221.247876-39.922027h181.335829V632.494659H422.504795v263.515322z"  ></path><path d="M528.976842 743.268304h39.951969v39.951969h-39.951969z"  ></path></svg>