<svg xmlns="http://www.w3.org/2000/svg" viewBox="0 0 1024 1024" width="200" height="200"><path d="M318.7712 275.1488c13.9264 15.5648 12.288 39.2192-1.024 55.296a252.6208 252.6208 0 0 0 2.1504 324.608c13.5168 15.872 15.4624 39.5264 1.8432 55.296-13.6192 15.6672-37.6832 17.408-51.712 2.048a327.9872 327.9872 0 0 1-2.8672-438.6816c13.824-15.5648 37.7856-14.0288 51.6096 1.4336z m386.56 0.1024c13.824-15.4624 37.888-16.9984 51.712-1.4336A328.2944 328.2944 0 0 1 839.68 493.7728a327.68 327.68 0 0 1-85.7088 218.624c-14.0288 15.36-37.9904 13.6192-51.712-2.048-13.6192-15.7696-11.6736-39.424 1.8432-55.296a252.5184 252.5184 0 0 0 2.1504-324.608c-13.312-15.9744-14.848-39.6288-1.024-55.1936z m-280.2688 97.9968c11.6736 16.0768 7.4752 38.4-4.1984 54.4768a111.2064 111.2064 0 0 0-21.2992 65.6384 112.4352 112.4352 0 0 0 21.1968 65.7408c11.5712 16.0768 15.7696 38.4 4.096 54.4768-11.6736 16.0768-34.5088 19.8656-48.0256 5.2224a185.344 185.344 0 0 1-49.152-125.5424 184.32 184.32 0 0 1 49.4592-125.3376c13.5168-14.5408 36.2496-10.752 47.9232 5.3248zM599.04 372.736c11.6736-16.0768 34.4064-19.968 48.0256-5.4272a184.32 184.32 0 0 1 0.3072 250.88c-13.5168 14.6432-36.352 10.8544-48.0256-5.2224-11.6736-16.0768-7.4752-38.2976 4.096-54.4768a110.592 110.592 0 0 0 21.1968-65.7408 112.4352 112.4352 0 0 0-21.2992-65.536c-11.6736-16.0768-15.872-38.4-4.3008-54.4768zM512 441.856a51.2 51.2 0 1 1 0 102.4 51.2 51.2 0 0 1 0-102.4z"  ></path></svg>