<svg xmlns="http://www.w3.org/2000/svg" viewBox="0 0 1024 1024" width="200" height="200"><path d="M714.666667 205.696a21.333333 21.333333 0 0 1 0 42.666667H165.12a21.333333 21.333333 0 1 1 0-42.666667H714.666667zM266.069333 768.725333v-85.077333a21.333333 21.333333 0 1 1 42.666667 0v85.077333a21.333333 21.333333 0 0 1-42.666667 0zM438.784 768.725333v-85.077333a21.333333 21.333333 0 1 1 42.666667 0v85.077333a21.333333 21.333333 0 0 1-42.666667 0z" fill="#3D3D63" ></path><path d="M861.525333 378.88l-106.581333 87.594667v71.722666l106.581333 86.613334V378.88z" fill="#FFA742" ></path><path d="M834.432 345.898667a42.666667 42.666667 0 0 1 69.76 32.938666v245.973334a42.666667 42.666667 0 0 1-69.589333 33.109333l-106.581334-86.613333a42.666667 42.666667 0 0 1-15.786666-33.109334v-71.722666a42.666667 42.666667 0 0 1 15.616-32.981334l106.581333-87.594666z m-79.488 192.298666l106.581333 86.613334V378.837333l-106.581333 87.637334v71.722666z" fill="#3D3D63" ></path><path d="M924.8 480.128l-279.637333-12.8v102.613333c2.816-0.426667 189.610667-55.552 279.637333-89.813333z" fill="#FFC670" ></path><path d="M926.72 437.504a42.666667 42.666667 0 0 1 13.269333 82.517333c-46.378667 17.621333-116.736 40.32-175.018666 58.453334a6995.285333 6995.285333 0 0 1-98.773334 29.866666l-6.826666 1.962667-2.389334 0.64-2.517333 0.64a42.666667 42.666667 0 0 1-51.968-41.685333v-102.570667a42.666667 42.666667 0 0 1 44.629333-42.624l279.637334 12.8z m-281.557333 132.437333c2.858667-0.426667 189.610667-55.552 279.637333-89.813333l-279.637333-12.8v102.613333z" fill="#3D3D63" ></path><path d="M924.8 480.128l-279.637333 59.178667v30.634666c2.816-0.426667 189.610667-55.552 279.637333-89.813333z" fill="#FFA742" ></path><path d="M98.688 674.090667a21.333333 21.333333 0 0 1 21.973333 20.650666c0.213333 6.912 1.962667 23.04 10.154667 36.565334 7.168 11.861333 19.925333 23.338667 47.488 22.741333 57.344-1.28 341.162667-0.512 475.562667 0a21.333333 21.333333 0 0 1-0.170667 42.666667c-134.826667-0.512-417.834667-1.28-474.453333-0.042667-43.690667 0.938667-70.4-19.114667-84.992-43.349333-13.653333-22.613333-15.957333-47.189333-16.213334-57.258667a21.333333 21.333333 0 0 1 20.650667-21.973333zM418.56 291.669333V244.778667a21.333333 21.333333 0 0 1 42.666667 0v46.933333a21.333333 21.333333 0 0 1-42.666667 0z" fill="#3D3D63" ></path><path d="M564.138667 330.496H450.56c-75.52 0-100.309333 39.68-103.253333 59.52-24.661333-0.213333-81.450667-0.554667-111.530667 0-37.632 0.682667-110.165333 42.410667-108.117333 145.749333 2.048 103.253333 104.661333 122.453333 141.653333 122.453334h227.797333c89.173333 0 147.754667-70.656 147.754667-122.752 0-32.128 0.554667-89.472 0-136.533334-0.682667-58.88-69.12-68.437333-80.725333-68.437333z" fill="#FFC670" ></path><path d="M450.56 330.496c-75.52 0-100.309333 39.68-103.253333 59.562667l-53.76-0.298667c-20.992-0.042667-42.752 0-57.813334 0.298667l-7.424 0.554666c-38.954667 5.546667-102.570667 48.298667-100.650666 145.152 1.92 96.853333 92.245333 119.722667 133.973333 122.197334l7.68 0.256h227.84c86.4 0 144.042667-66.304 147.541333-117.76l0.170667-4.949334c0-16.085333 0.128-38.485333 0.213333-62.72l-0.213333-73.856c-0.597333-51.498667-52.992-65.28-73.898667-67.882666l-6.826666-0.554667v-42.666667c11.52 0 38.570667 3.584 64.256 17.024 27.562667 14.378667 58.538667 43.52 59.136 93.568 0.554667 47.36 0 105.6 0 137.088 0 40.704-21.888 81.962667-53.930667 112a198.4 198.4 0 0 1-136.490667 53.333334h-227.84c-23.637333 0-66.474667-5.717333-105.258666-28.202667-41.216-23.893333-77.653333-67.072-79.018667-136.064-2.517333-126.933333 88.832-188.074667 150.016-189.184 21.802667-0.426667 57.002667-0.341333 84.394667-0.170667 20.864-32.042667 63.658667-59.392 131.157333-59.392v42.666667z m113.578667-42.666667v42.666667H450.56v-42.666667h113.578667z" fill="#3D3D63" ></path><path d="M644.864 535.466667s-31.573333 101.973333-249.429333 101.973333c-217.813333 0-250.581333-39.893333-250.581334-39.893333 31.232 49.749333 96.554667 60.672 124.416 60.672h227.84c89.173333 0 147.754667-70.656 147.754667-122.752z" fill="#FFA742" ></path><path d="M292.394667 515.712c16.938667-25.941333 18.133333-92.458667 15.573333-125.354667-45.056 0-81.493333-4.010667-107.690667 9.6-42.752 22.186667-71.381333 66.986667-71.381333 144.213334 23.168 0.981333 133.290667 17.92 163.498667-28.458667z" fill="#96DDFF" ></path><path d="M245.376 347.434667c18.773333-0.725333 43.349333 0.256 62.592 0.256a42.666667 42.666667 0 0 1 42.538667 39.381333c1.408 18.602667 1.834667 45.781333-0.512 72.277333a287.317333 287.317333 0 0 1-6.144 40.234667c-2.944 12.416-7.552 26.922667-15.701334 39.424-14.848 22.741333-37.461333 34.816-57.429333 41.386667-20.138667 6.613333-41.813333 9.130667-60.928 9.941333-36.053333 1.536-77.184-3.285333-82.773333-3.541333a42.666667 42.666667 0 0 1-40.789334-42.624c0-88.96 34.133333-150.826667 94.421334-182.058667 21.504-11.178667 44.714667-13.909333 64.725333-14.677333z m62.592 42.922666c-45.056 0-81.493333-3.968-107.648 9.6l-7.893333 4.437334c-38.4 23.466667-63.573333 67.413333-63.573334 139.776 22.485333 0.981333 126.506667 16.853333 160.512-24.32l3.072-4.138667c14.805333-22.698667 17.493333-76.458667 16.298667-111.573333l-0.768-13.781334z" fill="#3D3D63" ></path><path d="M221.312 408.789333a21.333333 21.333333 0 0 1 4.053333 42.538667c-4.608 0.426667-11.946667 4.010667-19.925333 11.861333-7.765333 7.637333-12.8 15.957333-14.336 20.224a21.333333 21.333333 0 0 1-40.32-13.994666c4.181333-12.074667 13.653333-25.856 24.746667-36.736 10.965333-10.709333 27.050667-22.101333 45.781333-23.893334z" fill="#FFFFFF" ></path><path d="M453.248 430.08h71.765333v71.296h-71.765333V430.08z" fill="#96DDFF" ></path><path d="M525.013333 430.08h-71.765333v71.296h71.765333V430.08z m42.666667 71.296a42.666667 42.666667 0 0 1-42.666667 42.666667h-71.765333a42.666667 42.666667 0 0 1-42.666667-42.666667V430.08a42.666667 42.666667 0 0 1 42.666667-42.666667h71.765333a42.666667 42.666667 0 0 1 42.666667 42.666667v71.296z" fill="#3D3D63" ></path></svg>